<svg version="1.0" preserveAspectRatio="xMidYMid meet" viewBox="44.36974789915966 178.415993628 282.3529411764706 137.08799510400002" zoomAndPan="magnify" xmlns:xlink="http://www.w3.org/1999/xlink" xmlns="http://www.w3.org/2000/svg" style="max-height: 500px" width="282.3529411764706" height="137.08799510400002"><defs><g/></defs><g fill-opacity="1" fill="#beae92"><g transform="translate(46.256396, 307.049702)"><g><path d="M 6.015625 -1.25 C 5.316406 -1.101562 4.832031 -1.171875 4.5625 -1.453125 C 4.289062 -1.742188 4.132812 -2.25 4.09375 -2.96875 L 2.390625 -48.703125 C 2.347656 -50.421875 3.054688 -51.429688 4.515625 -51.734375 C 5.265625 -51.890625 5.835938 -51.515625 6.234375 -50.609375 L 6.5625 -49.09375 C 6.539062 -48.675781 6.65625 -48.492188 6.90625 -48.546875 C 7.050781 -48.578125 7.140625 -48.800781 7.171875 -49.21875 L 7.390625 -51.078125 C 7.546875 -51.890625 7.804688 -52.460938 8.171875 -52.796875 C 8.546875 -53.140625 9.1875 -53.40625 10.09375 -53.59375 L 23.109375 -56.3125 C 24.109375 -56.519531 24.625 -56.160156 24.65625 -55.234375 C 24.6875 -54.816406 24.320312 -54.320312 23.5625 -53.75 C 22.882812 -53.28125 22.429688 -52.957031 22.203125 -52.78125 C 21.972656 -52.613281 21.859375 -52.421875 21.859375 -52.203125 C 21.890625 -52.046875 22.128906 -51.992188 22.578125 -52.046875 C 23.035156 -52.097656 23.523438 -52.082031 24.046875 -52 C 24.566406 -51.914062 24.828125 -51.613281 24.828125 -51.09375 C 24.847656 -50.007812 24.082031 -49.304688 22.53125 -48.984375 L 13.28125 -47.046875 C 12.320312 -46.847656 11.722656 -46.613281 11.484375 -46.34375 C 11.253906 -46.082031 11.128906 -45.507812 11.109375 -44.625 L 11.46875 -33.859375 C 11.414062 -32.546875 12.019531 -32.019531 13.28125 -32.28125 L 22.53125 -34.21875 C 23.9375 -34.507812 24.660156 -34.164062 24.703125 -33.1875 C 24.691406 -32.550781 24.144531 -31.9375 23.0625 -31.34375 C 22.445312 -31 22.160156 -30.710938 22.203125 -30.484375 C 22.253906 -30.253906 22.550781 -30.097656 23.09375 -30.015625 C 23.644531 -29.921875 24.171875 -29.796875 24.671875 -29.640625 C 25.171875 -29.484375 25.414062 -29.191406 25.40625 -28.765625 C 25.40625 -28.242188 25.234375 -27.800781 24.890625 -27.4375 C 24.546875 -27.082031 23.921875 -26.804688 23.015625 -26.609375 L 13.46875 -24.625 C 13.113281 -24.550781 12.800781 -24.410156 12.53125 -24.203125 C 12.257812 -23.992188 12.125 -23.648438 12.125 -23.171875 L 12.765625 -5.09375 C 12.785156 -3.945312 12.660156 -3.140625 12.390625 -2.671875 C 12.128906 -2.203125 11.695312 -1.90625 11.09375 -1.78125 C 10.488281 -1.65625 10.019531 -1.6875 9.6875 -1.875 C 9.363281 -2.070312 9.160156 -2.5 9.078125 -3.15625 L 9 -5.796875 C 9.019531 -6.441406 8.832031 -6.722656 8.4375 -6.640625 C 7.976562 -6.535156 7.765625 -6.175781 7.796875 -5.5625 L 7.796875 -3.65625 C 7.804688 -2.300781 7.210938 -1.5 6.015625 -1.25 Z M 6.015625 -1.25"/></g></g></g><g fill-opacity="1" fill="#beae92"><g transform="translate(73.485023, 301.370328)"><g/></g></g><g fill-opacity="1" fill="#beae92"><g transform="translate(81.006751, 299.801438)"><g><path d="M 21.078125 -35.859375 C 20.734375 -35.796875 20.539062 -35.601562 20.5 -35.28125 C 20.53125 -35.125 20.578125 -35.015625 20.640625 -34.953125 C 20.710938 -34.898438 20.875 -34.867188 21.125 -34.859375 L 21.890625 -34.9375 C 22.410156 -35 22.835938 -34.972656 23.171875 -34.859375 C 23.515625 -34.753906 23.691406 -34.414062 23.703125 -33.84375 C 23.753906 -33.164062 23.59375 -32.640625 23.21875 -32.265625 C 22.84375 -31.898438 22.378906 -31.660156 21.828125 -31.546875 L 2.0625 -27.421875 C 0.800781 -27.160156 0.144531 -27.546875 0.09375 -28.578125 C 0.113281 -29.679688 0.488281 -30.363281 1.21875 -30.625 C 1.457031 -30.726562 1.6875 -30.800781 1.90625 -30.84375 C 2.132812 -30.894531 2.375 -30.945312 2.625 -31 C 3.1875 -31.125 3.457031 -31.367188 3.4375 -31.734375 C 3.375 -32.023438 3.113281 -32.117188 2.65625 -32.015625 C 2 -31.878906 1.492188 -31.800781 1.140625 -31.78125 C 0.222656 -31.644531 -0.257812 -32.066406 -0.3125 -33.046875 C -0.289062 -33.472656 -0.140625 -33.898438 0.140625 -34.328125 C 0.421875 -34.753906 0.859375 -35.035156 1.453125 -35.171875 L 21.921875 -39.4375 C 22.179688 -39.4375 22.519531 -39.359375 22.9375 -39.203125 C 23.363281 -39.054688 23.585938 -38.671875 23.609375 -38.046875 C 23.628906 -36.953125 23.140625 -36.300781 22.140625 -36.09375 L 21.984375 -36.0625 C 21.878906 -36.03125 21.78125 -36.003906 21.6875 -35.984375 C 21.59375 -35.972656 21.390625 -35.929688 21.078125 -35.859375 Z M 21.5625 -23.03125 C 21.21875 -22.957031 20.992188 -22.773438 20.890625 -22.484375 C 20.921875 -22.328125 20.96875 -22.21875 21.03125 -22.15625 C 21.101562 -22.101562 21.269531 -22.078125 21.53125 -22.078125 L 22.359375 -22.25 C 22.867188 -22.300781 23.289062 -22.269531 23.625 -22.15625 C 23.96875 -22.050781 24.144531 -21.707031 24.15625 -21.125 C 24.1875 -20.445312 24.007812 -19.910156 23.625 -19.515625 C 23.238281 -19.117188 22.769531 -18.863281 22.21875 -18.75 L 2.515625 -14.640625 C 1.203125 -14.367188 0.546875 -14.757812 0.546875 -15.8125 C 0.484375 -16.894531 0.835938 -17.570312 1.609375 -17.84375 C 1.847656 -17.945312 2.082031 -18.019531 2.3125 -18.0625 C 2.539062 -18.113281 2.804688 -18.171875 3.109375 -18.234375 C 3.554688 -18.328125 3.796875 -18.554688 3.828125 -18.921875 C 3.878906 -19.203125 3.628906 -19.285156 3.078125 -19.171875 C 2.472656 -19.046875 1.988281 -18.96875 1.625 -18.9375 C 0.65625 -18.832031 0.171875 -19.253906 0.171875 -20.203125 C 0.179688 -20.671875 0.328125 -21.101562 0.609375 -21.5 C 0.898438 -21.90625 1.316406 -22.164062 1.859375 -22.28125 L 22.328125 -26.546875 C 22.585938 -26.546875 22.925781 -26.472656 23.34375 -26.328125 C 23.769531 -26.191406 23.992188 -25.804688 24.015625 -25.171875 C 24.066406 -24.660156 23.9375 -24.234375 23.625 -23.890625 C 23.3125 -23.546875 22.953125 -23.328125 22.546875 -23.234375 L 22.40625 -23.21875 C 22.300781 -23.1875 22.195312 -23.160156 22.09375 -23.140625 C 22 -23.117188 21.820312 -23.082031 21.5625 -23.03125 Z M 21.5625 -23.03125"/></g></g></g><g fill-opacity="1" fill="#beae92"><g transform="translate(108.009728, 294.16913)"><g/></g></g><g fill-opacity="1" fill="#beae92"><g transform="translate(115.531455, 292.600241)"><g><path d="M 17.859375 -3.25 C 15.398438 -2.738281 13.117188 -2.679688 11.015625 -3.078125 C 8.921875 -3.472656 7.054688 -4.519531 5.421875 -6.21875 C 3.785156 -7.914062 2.484375 -10.457031 1.515625 -13.84375 C 0.546875 -17.226562 -0.0195312 -21.679688 -0.1875 -27.203125 C -0.425781 -35.148438 0.859375 -41.535156 3.671875 -46.359375 C 6.484375 -51.191406 10.820312 -54.21875 16.6875 -55.4375 C 18.238281 -55.769531 19.789062 -55.847656 21.34375 -55.671875 C 22.894531 -55.492188 24.300781 -55.144531 25.5625 -54.625 C 26.832031 -54.101562 27.785156 -53.460938 28.421875 -52.703125 C 28.742188 -52.359375 28.953125 -51.957031 29.046875 -51.5 C 29.140625 -51.050781 28.976562 -50.578125 28.5625 -50.078125 C 28.40625 -49.878906 28.148438 -49.742188 27.796875 -49.671875 C 27.191406 -49.546875 26.566406 -49.648438 25.921875 -49.984375 C 25.617188 -50.191406 25.296875 -50.363281 24.953125 -50.5 C 24.609375 -50.632812 24.238281 -50.789062 23.84375 -50.96875 C 23.582031 -51.132812 23.304688 -51.1875 23.015625 -51.125 C 22.703125 -51.0625 22.519531 -50.914062 22.46875 -50.6875 C 22.425781 -50.46875 22.566406 -50.316406 22.890625 -50.234375 C 24.097656 -49.703125 25.015625 -49.078125 25.640625 -48.359375 C 25.898438 -48.054688 26.03125 -47.65625 26.03125 -47.15625 C 26.039062 -46.65625 25.875 -46.21875 25.53125 -45.84375 C 25.375 -45.59375 25.066406 -45.421875 24.609375 -45.328125 C 24.160156 -45.234375 23.78125 -45.3125 23.46875 -45.5625 C 22.675781 -46.382812 21.71875 -47.035156 20.59375 -47.515625 C 19.476562 -47.992188 18.242188 -48.085938 16.890625 -47.796875 C 15.429688 -47.492188 14.039062 -46.601562 12.71875 -45.125 C 11.40625 -43.644531 10.359375 -41.566406 9.578125 -38.890625 C 8.804688 -36.210938 8.492188 -32.90625 8.640625 -28.96875 C 8.785156 -23.96875 9.335938 -20.101562 10.296875 -17.375 C 11.265625 -14.65625 12.421875 -12.820312 13.765625 -11.875 C 15.117188 -10.925781 16.398438 -10.578125 17.609375 -10.828125 C 18.515625 -11.015625 19.175781 -11.28125 19.59375 -11.625 C 20.019531 -11.976562 20.257812 -12.160156 20.3125 -12.171875 C 21.320312 -13.003906 21.820312 -14.101562 21.8125 -15.46875 L 21.5 -26 C 21.457031 -26.707031 21.285156 -27.148438 20.984375 -27.328125 C 20.691406 -27.503906 20.289062 -27.539062 19.78125 -27.4375 L 17 -26.859375 C 16.5 -26.753906 16.019531 -26.734375 15.5625 -26.796875 C 15.113281 -26.859375 14.882812 -27.148438 14.875 -27.671875 C 14.84375 -28.085938 14.96875 -28.414062 15.25 -28.65625 C 15.539062 -28.894531 15.96875 -29.179688 16.53125 -29.515625 C 17.25 -29.816406 17.613281 -30.070312 17.625 -30.28125 C 17.664062 -30.601562 17.21875 -30.742188 16.28125 -30.703125 C 15.550781 -30.710938 15.191406 -31.054688 15.203125 -31.734375 C 15.171875 -32.628906 15.859375 -33.222656 17.265625 -33.515625 L 27.71875 -35.703125 C 28.96875 -35.960938 29.628906 -35.675781 29.703125 -34.84375 C 29.710938 -34.320312 29.570312 -33.9375 29.28125 -33.6875 C 29 -33.445312 28.707031 -33.269531 28.40625 -33.15625 C 28.113281 -33.050781 27.976562 -32.84375 28 -32.53125 C 28.03125 -32.375 28.195312 -32.265625 28.5 -32.203125 C 28.800781 -32.140625 29.109375 -31.96875 29.421875 -31.6875 C 29.742188 -31.414062 29.910156 -30.863281 29.921875 -30.03125 C 30.035156 -27.75 30.0625 -25.238281 30 -22.5 C 29.9375 -19.769531 29.960938 -17.265625 30.078125 -14.984375 C 30.148438 -13.910156 29.804688 -12.742188 29.046875 -11.484375 C 28.296875 -10.222656 27.289062 -9.015625 26.03125 -7.859375 C 24.769531 -6.710938 23.425781 -5.726562 22 -4.90625 C 20.582031 -4.082031 19.203125 -3.53125 17.859375 -3.25 Z M 7.03125 -13.328125 C 7.144531 -11.554688 7.503906 -10.148438 8.109375 -9.109375 C 8.722656 -8.066406 9.707031 -7.316406 11.0625 -6.859375 L 10.203125 -7.234375 C 11.054688 -6.878906 11.945312 -6.664062 12.875 -6.59375 C 13.800781 -6.53125 14.609375 -6.535156 15.296875 -6.609375 C 15.992188 -6.679688 16.414062 -6.734375 16.5625 -6.765625 C 15.257812 -6.742188 14.117188 -6.878906 13.140625 -7.171875 C 12.160156 -7.472656 11.316406 -7.835938 10.609375 -8.265625 C 9.640625 -8.828125 8.890625 -9.503906 8.359375 -10.296875 C 7.835938 -11.085938 7.394531 -12.097656 7.03125 -13.328125 Z M 7.03125 -13.328125"/></g></g></g><g fill-opacity="1" fill="#beae92"><g transform="translate(165.587471, 247.119529)"><g><path d="M 27.6875 -38.890625 C 29.03125 -41.953125 31.734375 -43.90625 35.796875 -44.75 C 39.804688 -45.59375 42.8125 -45.175781 44.8125 -43.5 C 46.8125 -41.820312 47.890625 -38.59375 48.046875 -33.8125 C 48.179688 -30.382812 48.257812 -26.921875 48.28125 -23.421875 C 48.3125 -19.921875 48.378906 -16.425781 48.484375 -12.9375 C 48.484375 -12.726562 48.488281 -12.53125 48.5 -12.34375 C 48.507812 -12.164062 48.484375 -11.96875 48.421875 -11.75 C 48.398438 -11.332031 48.316406 -10.910156 48.171875 -10.484375 C 48.023438 -10.054688 47.648438 -9.78125 47.046875 -9.65625 C 45.773438 -9.5 45.097656 -9.988281 45.015625 -11.125 C 44.960938 -11.570312 44.941406 -11.890625 44.953125 -12.078125 C 44.972656 -12.265625 44.960938 -12.585938 44.921875 -13.046875 C 44.910156 -13.890625 44.65625 -14.257812 44.15625 -14.15625 C 43.65625 -14.050781 43.410156 -13.578125 43.421875 -12.734375 C 43.410156 -12.523438 43.398438 -12.367188 43.390625 -12.265625 C 43.390625 -12.160156 43.375 -11.816406 43.34375 -11.234375 C 43.351562 -10.660156 43.242188 -10.097656 43.015625 -9.546875 C 42.796875 -9.003906 42.335938 -8.660156 41.640625 -8.515625 C 40.867188 -8.410156 40.363281 -8.539062 40.125 -8.90625 C 39.894531 -9.28125 39.78125 -9.726562 39.78125 -10.25 C 39.757812 -14.125 39.722656 -17.691406 39.671875 -20.953125 C 39.617188 -24.210938 39.535156 -27.738281 39.421875 -31.53125 C 39.359375 -33.820312 38.875 -35.367188 37.96875 -36.171875 C 37.070312 -36.984375 35.789062 -37.242188 34.125 -36.953125 C 32.414062 -36.597656 31.085938 -35.953125 30.140625 -35.015625 C 29.609375 -34.546875 29.347656 -34.046875 29.359375 -33.515625 C 29.460938 -33.015625 29.546875 -32.484375 29.609375 -31.921875 C 29.671875 -31.359375 29.710938 -30.765625 29.734375 -30.140625 C 29.835938 -26.648438 29.898438 -23.164062 29.921875 -19.6875 C 29.941406 -16.21875 30.023438 -12.75 30.171875 -9.28125 C 30.171875 -9.0625 30.160156 -8.859375 30.140625 -8.671875 C 30.128906 -8.492188 30.117188 -8.300781 30.109375 -8.09375 C 30.085938 -7.664062 29.988281 -7.238281 29.8125 -6.8125 C 29.644531 -6.382812 29.285156 -6.113281 28.734375 -6 L 28.59375 -5.96875 C 27.414062 -5.832031 26.738281 -6.320312 26.5625 -7.4375 C 26.53125 -7.84375 26.515625 -8.148438 26.515625 -8.359375 C 26.523438 -8.566406 26.503906 -8.898438 26.453125 -9.359375 C 26.429688 -10.242188 26.195312 -10.644531 25.75 -10.5625 C 25.25 -10.457031 25.007812 -9.957031 25.03125 -9.0625 L 25.046875 -7.5 C 24.953125 -6.945312 24.796875 -6.382812 24.578125 -5.8125 C 24.359375 -5.25 23.921875 -4.898438 23.265625 -4.765625 C 22.546875 -4.671875 22.054688 -4.804688 21.796875 -5.171875 C 21.535156 -5.535156 21.398438 -6.003906 21.390625 -6.578125 C 21.367188 -10.453125 21.332031 -14.003906 21.28125 -17.234375 C 21.238281 -20.472656 21.164062 -23.988281 21.0625 -27.78125 C 21 -30.070312 20.5 -31.640625 19.5625 -32.484375 C 18.625 -33.335938 17.347656 -33.597656 15.734375 -33.265625 C 14.128906 -32.929688 12.90625 -32.410156 12.0625 -31.703125 C 11.507812 -31.335938 11.238281 -30.785156 11.25 -30.046875 L 11.9375 -5.640625 L 11.9375 -4.53125 C 11.925781 -4.0625 11.796875 -3.601562 11.546875 -3.15625 C 11.304688 -2.71875 10.882812 -2.4375 10.28125 -2.3125 C 9 -2.15625 8.320312 -2.640625 8.25 -3.765625 C 8.195312 -4.210938 8.171875 -4.503906 8.171875 -4.640625 C 8.171875 -4.773438 8.15625 -5.046875 8.125 -5.453125 C 8.082031 -6.179688 7.882812 -6.515625 7.53125 -6.453125 C 7.125 -6.359375 6.878906 -5.90625 6.796875 -5.09375 L 6.703125 -3.203125 C 6.648438 -2.503906 6.492188 -1.957031 6.234375 -1.5625 C 5.972656 -1.164062 5.488281 -0.894531 4.78125 -0.75 C 4.082031 -0.601562 3.625 -0.734375 3.40625 -1.140625 C 3.1875 -1.546875 3.046875 -2.023438 2.984375 -2.578125 C 2.953125 -8.066406 2.878906 -13.269531 2.765625 -18.1875 C 2.660156 -23.113281 2.460938 -28.375 2.171875 -33.96875 C 2.179688 -34.4375 2.179688 -34.9375 2.171875 -35.46875 C 2.171875 -36 2.550781 -36.34375 3.3125 -36.5 C 3.851562 -36.613281 4.300781 -36.378906 4.65625 -35.796875 C 5.019531 -35.210938 5.320312 -34.515625 5.5625 -33.703125 C 5.8125 -32.890625 6.039062 -32.175781 6.25 -31.5625 C 6.457031 -30.945312 6.710938 -30.671875 7.015625 -30.734375 C 7.367188 -30.804688 7.632812 -31.28125 7.8125 -32.15625 C 7.988281 -33.039062 8.347656 -34.070312 8.890625 -35.25 C 9.429688 -36.4375 10.359375 -37.570312 11.671875 -38.65625 C 12.992188 -39.75 14.9375 -40.5625 17.5 -41.09375 C 19.59375 -41.53125 21.4375 -41.570312 23.03125 -41.21875 C 24.625 -40.875 25.898438 -40.039062 26.859375 -38.71875 C 26.992188 -38.550781 27.109375 -38.476562 27.203125 -38.5 C 27.359375 -38.53125 27.519531 -38.660156 27.6875 -38.890625 Z M 25.046875 -30.8125 C 25.328125 -33.238281 24.671875 -35.050781 23.078125 -36.25 C 21.492188 -37.457031 19.523438 -37.816406 17.171875 -37.328125 C 19.378906 -37.066406 21.09375 -36.4375 22.3125 -35.4375 C 23.539062 -34.4375 24.453125 -32.894531 25.046875 -30.8125 Z M 43.640625 -34.6875 C 43.921875 -37.0625 43.269531 -38.851562 41.6875 -40.0625 C 40.101562 -41.28125 38.128906 -41.640625 35.765625 -41.140625 C 37.960938 -40.859375 39.660156 -40.21875 40.859375 -39.21875 C 42.066406 -38.21875 42.992188 -36.707031 43.640625 -34.6875 Z M 43.640625 -34.6875"/></g></g></g><g fill-opacity="1" fill="#beae92"><g transform="translate(217.949885, 236.197724)"><g/></g></g><g fill-opacity="1" fill="#beae92"><g transform="translate(225.471612, 234.628834)"><g/></g></g><g fill-opacity="1" fill="#beae92"><g transform="translate(232.993339, 233.059945)"><g/></g></g><g fill-opacity="1" fill="#beae92"><g transform="translate(240.515067, 231.491055)"><g/></g></g><g fill-opacity="1" fill="#beae92"><g transform="translate(248.036794, 229.922166)"><g/></g></g><g fill-opacity="1" fill="#beae92"><g transform="translate(255.579467, 228.348908)"><g><path d="M 27.6875 -38.890625 C 29.03125 -41.953125 31.734375 -43.90625 35.796875 -44.75 C 39.804688 -45.59375 42.8125 -45.175781 44.8125 -43.5 C 46.8125 -41.820312 47.890625 -38.59375 48.046875 -33.8125 C 48.179688 -30.382812 48.257812 -26.921875 48.28125 -23.421875 C 48.3125 -19.921875 48.378906 -16.425781 48.484375 -12.9375 C 48.484375 -12.726562 48.488281 -12.53125 48.5 -12.34375 C 48.507812 -12.164062 48.484375 -11.96875 48.421875 -11.75 C 48.398438 -11.332031 48.316406 -10.910156 48.171875 -10.484375 C 48.023438 -10.054688 47.648438 -9.78125 47.046875 -9.65625 C 45.773438 -9.5 45.097656 -9.988281 45.015625 -11.125 C 44.960938 -11.570312 44.941406 -11.890625 44.953125 -12.078125 C 44.972656 -12.265625 44.960938 -12.585938 44.921875 -13.046875 C 44.910156 -13.890625 44.65625 -14.257812 44.15625 -14.15625 C 43.65625 -14.050781 43.410156 -13.578125 43.421875 -12.734375 C 43.410156 -12.523438 43.398438 -12.367188 43.390625 -12.265625 C 43.390625 -12.160156 43.375 -11.816406 43.34375 -11.234375 C 43.351562 -10.660156 43.242188 -10.097656 43.015625 -9.546875 C 42.796875 -9.003906 42.335938 -8.660156 41.640625 -8.515625 C 40.867188 -8.410156 40.363281 -8.539062 40.125 -8.90625 C 39.894531 -9.28125 39.78125 -9.726562 39.78125 -10.25 C 39.757812 -14.125 39.722656 -17.691406 39.671875 -20.953125 C 39.617188 -24.210938 39.535156 -27.738281 39.421875 -31.53125 C 39.359375 -33.820312 38.875 -35.367188 37.96875 -36.171875 C 37.070312 -36.984375 35.789062 -37.242188 34.125 -36.953125 C 32.414062 -36.597656 31.085938 -35.953125 30.140625 -35.015625 C 29.609375 -34.546875 29.347656 -34.046875 29.359375 -33.515625 C 29.460938 -33.015625 29.546875 -32.484375 29.609375 -31.921875 C 29.671875 -31.359375 29.710938 -30.765625 29.734375 -30.140625 C 29.835938 -26.648438 29.898438 -23.164062 29.921875 -19.6875 C 29.941406 -16.21875 30.023438 -12.75 30.171875 -9.28125 C 30.171875 -9.0625 30.160156 -8.859375 30.140625 -8.671875 C 30.128906 -8.492188 30.117188 -8.300781 30.109375 -8.09375 C 30.085938 -7.664062 29.988281 -7.238281 29.8125 -6.8125 C 29.644531 -6.382812 29.285156 -6.113281 28.734375 -6 L 28.59375 -5.96875 C 27.414062 -5.832031 26.738281 -6.320312 26.5625 -7.4375 C 26.53125 -7.84375 26.515625 -8.148438 26.515625 -8.359375 C 26.523438 -8.566406 26.503906 -8.898438 26.453125 -9.359375 C 26.429688 -10.242188 26.195312 -10.644531 25.75 -10.5625 C 25.25 -10.457031 25.007812 -9.957031 25.03125 -9.0625 L 25.046875 -7.5 C 24.953125 -6.945312 24.796875 -6.382812 24.578125 -5.8125 C 24.359375 -5.25 23.921875 -4.898438 23.265625 -4.765625 C 22.546875 -4.671875 22.054688 -4.804688 21.796875 -5.171875 C 21.535156 -5.535156 21.398438 -6.003906 21.390625 -6.578125 C 21.367188 -10.453125 21.332031 -14.003906 21.28125 -17.234375 C 21.238281 -20.472656 21.164062 -23.988281 21.0625 -27.78125 C 21 -30.070312 20.5 -31.640625 19.5625 -32.484375 C 18.625 -33.335938 17.347656 -33.597656 15.734375 -33.265625 C 14.128906 -32.929688 12.90625 -32.410156 12.0625 -31.703125 C 11.507812 -31.335938 11.238281 -30.785156 11.25 -30.046875 L 11.9375 -5.640625 L 11.9375 -4.53125 C 11.925781 -4.0625 11.796875 -3.601562 11.546875 -3.15625 C 11.304688 -2.71875 10.882812 -2.4375 10.28125 -2.3125 C 9 -2.15625 8.320312 -2.640625 8.25 -3.765625 C 8.195312 -4.210938 8.171875 -4.503906 8.171875 -4.640625 C 8.171875 -4.773438 8.15625 -5.046875 8.125 -5.453125 C 8.082031 -6.179688 7.882812 -6.515625 7.53125 -6.453125 C 7.125 -6.359375 6.878906 -5.90625 6.796875 -5.09375 L 6.703125 -3.203125 C 6.648438 -2.503906 6.492188 -1.957031 6.234375 -1.5625 C 5.972656 -1.164062 5.488281 -0.894531 4.78125 -0.75 C 4.082031 -0.601562 3.625 -0.734375 3.40625 -1.140625 C 3.1875 -1.546875 3.046875 -2.023438 2.984375 -2.578125 C 2.953125 -8.066406 2.878906 -13.269531 2.765625 -18.1875 C 2.660156 -23.113281 2.460938 -28.375 2.171875 -33.96875 C 2.179688 -34.4375 2.179688 -34.9375 2.171875 -35.46875 C 2.171875 -36 2.550781 -36.34375 3.3125 -36.5 C 3.851562 -36.613281 4.300781 -36.378906 4.65625 -35.796875 C 5.019531 -35.210938 5.320312 -34.515625 5.5625 -33.703125 C 5.8125 -32.890625 6.039062 -32.175781 6.25 -31.5625 C 6.457031 -30.945312 6.710938 -30.671875 7.015625 -30.734375 C 7.367188 -30.804688 7.632812 -31.28125 7.8125 -32.15625 C 7.988281 -33.039062 8.347656 -34.070312 8.890625 -35.25 C 9.429688 -36.4375 10.359375 -37.570312 11.671875 -38.65625 C 12.992188 -39.75 14.9375 -40.5625 17.5 -41.09375 C 19.59375 -41.53125 21.4375 -41.570312 23.03125 -41.21875 C 24.625 -40.875 25.898438 -40.039062 26.859375 -38.71875 C 26.992188 -38.550781 27.109375 -38.476562 27.203125 -38.5 C 27.359375 -38.53125 27.519531 -38.660156 27.6875 -38.890625 Z M 25.046875 -30.8125 C 25.328125 -33.238281 24.671875 -35.050781 23.078125 -36.25 C 21.492188 -37.457031 19.523438 -37.816406 17.171875 -37.328125 C 19.378906 -37.066406 21.09375 -36.4375 22.3125 -35.4375 C 23.539062 -34.4375 24.453125 -32.894531 25.046875 -30.8125 Z M 43.640625 -34.6875 C 43.921875 -37.0625 43.269531 -38.851562 41.6875 -40.0625 C 40.101562 -41.28125 38.128906 -41.640625 35.765625 -41.140625 C 37.960938 -40.859375 39.660156 -40.21875 40.859375 -39.21875 C 42.066406 -38.21875 42.992188 -36.707031 43.640625 -34.6875 Z M 43.640625 -34.6875"/></g></g></g><g fill-opacity="1" fill="#beae92"><g transform="translate(215.940821, 238.18735)"><g><path d="M 15.15625 -21.296875 C 15.894531 -22.972656 17.375 -24.039062 19.59375 -24.5 C 21.789062 -24.957031 23.4375 -24.726562 24.53125 -23.8125 C 25.625 -22.894531 26.210938 -21.128906 26.296875 -18.515625 C 26.378906 -16.640625 26.421875 -14.738281 26.421875 -12.8125 C 26.429688 -10.894531 26.46875 -8.984375 26.53125 -7.078125 C 26.519531 -6.960938 26.519531 -6.851562 26.53125 -6.75 C 26.539062 -6.65625 26.523438 -6.550781 26.484375 -6.4375 C 26.484375 -6.195312 26.441406 -5.960938 26.359375 -5.734375 C 26.285156 -5.503906 26.085938 -5.359375 25.765625 -5.296875 C 25.054688 -5.203125 24.679688 -5.460938 24.640625 -6.078125 C 24.617188 -6.328125 24.609375 -6.503906 24.609375 -6.609375 C 24.617188 -6.710938 24.613281 -6.894531 24.59375 -7.15625 C 24.570312 -7.601562 24.425781 -7.800781 24.15625 -7.75 C 23.882812 -7.6875 23.753906 -7.429688 23.765625 -6.984375 C 23.765625 -6.867188 23.765625 -6.78125 23.765625 -6.71875 C 23.765625 -6.664062 23.753906 -6.472656 23.734375 -6.140625 C 23.734375 -5.835938 23.671875 -5.535156 23.546875 -5.234375 C 23.421875 -4.941406 23.171875 -4.753906 22.796875 -4.671875 C 22.367188 -4.609375 22.09375 -4.675781 21.96875 -4.875 C 21.84375 -5.070312 21.78125 -5.320312 21.78125 -5.625 C 21.757812 -7.738281 21.734375 -9.6875 21.703125 -11.46875 C 21.679688 -13.25 21.644531 -15.179688 21.59375 -17.265625 C 21.550781 -18.515625 21.285156 -19.359375 20.796875 -19.796875 C 20.304688 -20.242188 19.601562 -20.382812 18.6875 -20.21875 C 17.75 -20.019531 17.019531 -19.664062 16.5 -19.15625 C 16.21875 -18.90625 16.070312 -18.632812 16.0625 -18.34375 C 16.125 -18.070312 16.171875 -17.78125 16.203125 -17.46875 C 16.242188 -17.15625 16.269531 -16.832031 16.28125 -16.5 C 16.332031 -14.59375 16.363281 -12.6875 16.375 -10.78125 C 16.382812 -8.882812 16.429688 -6.984375 16.515625 -5.078125 C 16.503906 -4.960938 16.492188 -4.851562 16.484375 -4.75 C 16.484375 -4.644531 16.476562 -4.539062 16.46875 -4.4375 C 16.46875 -4.195312 16.421875 -3.957031 16.328125 -3.71875 C 16.234375 -3.488281 16.03125 -3.34375 15.71875 -3.28125 L 15.640625 -3.265625 C 15.003906 -3.179688 14.640625 -3.453125 14.546875 -4.078125 C 14.515625 -4.285156 14.503906 -4.445312 14.515625 -4.5625 C 14.523438 -4.6875 14.515625 -4.875 14.484375 -5.125 C 14.472656 -5.613281 14.34375 -5.832031 14.09375 -5.78125 C 13.8125 -5.71875 13.679688 -5.441406 13.703125 -4.953125 L 13.71875 -4.09375 C 13.664062 -3.800781 13.578125 -3.5 13.453125 -3.1875 C 13.335938 -2.875 13.097656 -2.679688 12.734375 -2.609375 C 12.335938 -2.554688 12.066406 -2.628906 11.921875 -2.828125 C 11.785156 -3.023438 11.71875 -3.28125 11.71875 -3.59375 C 11.695312 -5.71875 11.671875 -7.664062 11.640625 -9.4375 C 11.617188 -11.207031 11.582031 -13.128906 11.53125 -15.203125 C 11.488281 -16.460938 11.210938 -17.320312 10.703125 -17.78125 C 10.191406 -18.238281 9.5 -18.378906 8.625 -18.203125 C 7.738281 -18.015625 7.066406 -17.734375 6.609375 -17.359375 C 6.296875 -17.148438 6.140625 -16.847656 6.140625 -16.453125 L 6.546875 -3.09375 L 6.53125 -2.484375 C 6.53125 -2.222656 6.460938 -1.96875 6.328125 -1.71875 C 6.191406 -1.476562 5.957031 -1.320312 5.625 -1.25 C 4.9375 -1.175781 4.566406 -1.445312 4.515625 -2.0625 C 4.484375 -2.3125 4.46875 -2.472656 4.46875 -2.546875 C 4.46875 -2.617188 4.460938 -2.765625 4.453125 -2.984375 C 4.421875 -3.378906 4.3125 -3.554688 4.125 -3.515625 C 3.90625 -3.472656 3.765625 -3.234375 3.703125 -2.796875 L 3.671875 -1.765625 C 3.628906 -1.367188 3.539062 -1.0625 3.40625 -0.84375 C 3.269531 -0.632812 3.007812 -0.492188 2.625 -0.421875 C 2.238281 -0.335938 1.984375 -0.40625 1.859375 -0.625 C 1.742188 -0.84375 1.664062 -1.109375 1.625 -1.421875 C 1.613281 -4.421875 1.578125 -7.269531 1.515625 -9.96875 C 1.453125 -12.664062 1.34375 -15.539062 1.1875 -18.59375 C 1.1875 -18.851562 1.1875 -19.125 1.1875 -19.40625 C 1.1875 -19.695312 1.390625 -19.882812 1.796875 -19.96875 C 2.097656 -20.03125 2.347656 -19.898438 2.546875 -19.578125 C 2.742188 -19.265625 2.910156 -18.882812 3.046875 -18.4375 C 3.179688 -17.988281 3.304688 -17.597656 3.421875 -17.265625 C 3.535156 -16.941406 3.671875 -16.796875 3.828125 -16.828125 C 4.023438 -16.867188 4.171875 -17.128906 4.265625 -17.609375 C 4.367188 -18.085938 4.566406 -18.648438 4.859375 -19.296875 C 5.160156 -19.953125 5.671875 -20.570312 6.390625 -21.15625 C 7.109375 -21.75 8.171875 -22.195312 9.578125 -22.5 C 10.734375 -22.738281 11.742188 -22.757812 12.609375 -22.5625 C 13.472656 -22.363281 14.171875 -21.910156 14.703125 -21.203125 C 14.773438 -21.097656 14.84375 -21.050781 14.90625 -21.0625 C 14.976562 -21.070312 15.0625 -21.148438 15.15625 -21.296875 Z M 13.703125 -16.859375 C 13.859375 -18.191406 13.503906 -19.191406 12.640625 -19.859375 C 11.773438 -20.523438 10.695312 -20.722656 9.40625 -20.453125 C 10.601562 -20.285156 11.535156 -19.929688 12.203125 -19.390625 C 12.878906 -18.847656 13.378906 -18.003906 13.703125 -16.859375 Z M 23.875 -18.984375 C 24.039062 -20.273438 23.6875 -21.253906 22.8125 -21.921875 C 21.945312 -22.585938 20.867188 -22.789062 19.578125 -22.53125 C 20.785156 -22.363281 21.71875 -22.003906 22.375 -21.453125 C 23.03125 -20.910156 23.53125 -20.085938 23.875 -18.984375 Z M 23.875 -18.984375"/></g></g></g><g fill-opacity="1" fill="#beae92"><g transform="translate(306.108144, 219.378146)"><g><path d="M 6.03125 -21.75 C 7.40625 -22.039062 8.6875 -22.113281 9.875 -21.96875 C 11.070312 -21.820312 11.941406 -21.46875 12.484375 -20.90625 C 12.816406 -20.65625 13.046875 -20.304688 13.171875 -19.859375 C 13.296875 -19.410156 13.226562 -19.050781 12.96875 -18.78125 C 12.851562 -18.632812 12.6875 -18.539062 12.46875 -18.5 C 12.226562 -18.445312 11.992188 -18.472656 11.765625 -18.578125 C 11.585938 -18.648438 11.414062 -18.796875 11.25 -19.015625 C 11.132812 -19.140625 11.019531 -19.191406 10.90625 -19.171875 C 10.851562 -19.160156 10.816406 -19.132812 10.796875 -19.09375 C 10.734375 -18.988281 10.742188 -18.859375 10.828125 -18.703125 C 10.910156 -18.617188 10.992188 -18.523438 11.078125 -18.421875 C 11.171875 -18.328125 11.25 -18.210938 11.3125 -18.078125 C 11.445312 -17.828125 11.375 -17.613281 11.09375 -17.4375 C 11.03125 -17.34375 10.898438 -17.273438 10.703125 -17.234375 C 10.535156 -17.203125 10.378906 -17.210938 10.234375 -17.265625 C 10.054688 -17.316406 9.898438 -17.378906 9.765625 -17.453125 C 9.640625 -17.535156 9.5 -17.609375 9.34375 -17.671875 C 9.007812 -17.835938 8.664062 -17.953125 8.3125 -18.015625 C 7.957031 -18.085938 7.578125 -18.082031 7.171875 -18 C 6.378906 -17.851562 5.878906 -17.640625 5.671875 -17.359375 C 5.460938 -17.078125 5.359375 -16.796875 5.359375 -16.515625 C 5.378906 -16.078125 5.632812 -15.722656 6.125 -15.453125 C 6.625 -15.179688 7.015625 -14.976562 7.296875 -14.84375 C 7.804688 -14.601562 8.191406 -14.414062 8.453125 -14.28125 C 8.722656 -14.15625 9.113281 -13.988281 9.625 -13.78125 C 10.875 -13.269531 11.859375 -12.570312 12.578125 -11.6875 C 13.296875 -10.800781 13.671875 -9.75 13.703125 -8.53125 C 13.742188 -6.613281 13.253906 -5.039062 12.234375 -3.8125 C 11.210938 -2.582031 9.445312 -1.707031 6.9375 -1.1875 C 5.25 -0.832031 3.773438 -0.953125 2.515625 -1.546875 C 1.265625 -2.148438 0.503906 -2.984375 0.234375 -4.046875 C 0.179688 -4.265625 0.175781 -4.472656 0.21875 -4.671875 C 0.257812 -4.867188 0.4375 -5.007812 0.75 -5.09375 L 0.859375 -5.125 C 1.085938 -5.164062 1.269531 -5.117188 1.40625 -4.984375 C 1.550781 -4.859375 1.644531 -4.734375 1.6875 -4.609375 C 1.875 -4.328125 2.085938 -4.09375 2.328125 -3.90625 C 2.429688 -3.832031 2.53125 -3.804688 2.625 -3.828125 C 2.707031 -3.847656 2.765625 -3.90625 2.796875 -4 C 2.835938 -4.101562 2.804688 -4.203125 2.703125 -4.296875 C 2.503906 -4.492188 2.375 -4.613281 2.3125 -4.65625 C 2.257812 -4.695312 2.1875 -4.835938 2.09375 -5.078125 C 2.007812 -5.285156 2 -5.492188 2.0625 -5.703125 C 2.125 -5.921875 2.28125 -6.097656 2.53125 -6.234375 C 2.539062 -6.265625 2.585938 -6.289062 2.671875 -6.3125 C 2.890625 -6.363281 3.066406 -6.34375 3.203125 -6.25 C 3.335938 -6.164062 3.445312 -6.0625 3.53125 -5.9375 C 4.113281 -5.195312 5.117188 -4.976562 6.546875 -5.28125 C 8.191406 -5.625 9.007812 -6.3125 9 -7.34375 C 8.988281 -7.820312 8.828125 -8.242188 8.515625 -8.609375 C 8.210938 -8.972656 7.609375 -9.378906 6.703125 -9.828125 L 6 -10.140625 C 5.519531 -10.398438 5.066406 -10.617188 4.640625 -10.796875 C 4.222656 -10.972656 3.773438 -11.179688 3.296875 -11.421875 C 2.335938 -11.890625 1.597656 -12.507812 1.078125 -13.28125 C 0.554688 -14.0625 0.28125 -14.910156 0.25 -15.828125 C 0.207031 -17.179688 0.6875 -18.40625 1.6875 -19.5 C 2.6875 -20.601562 4.132812 -21.351562 6.03125 -21.75 Z M 11.28125 -6.609375 C 11.738281 -7.878906 11.703125 -8.988281 11.171875 -9.9375 C 10.648438 -10.882812 9.835938 -11.472656 8.734375 -11.703125 C 9.398438 -11.242188 9.925781 -10.796875 10.3125 -10.359375 C 10.707031 -9.921875 10.976562 -9.421875 11.125 -8.859375 C 11.28125 -8.296875 11.332031 -7.546875 11.28125 -6.609375 Z M 11.28125 -6.609375"/></g></g></g><g fill-opacity="1" fill="#beae92"><g transform="translate(215.251142, 309.035331)"><g><path d="M 26.25 -53.984375 C 27.570312 -54.253906 28.253906 -53.523438 28.296875 -51.796875 L 29.375 -8.265625 C 29.414062 -8.078125 29.4375 -7.984375 29.4375 -7.984375 C 29.4375 -7.984375 29.398438 -7.875 29.328125 -7.65625 C 29.316406 -7.238281 29.191406 -6.8125 28.953125 -6.375 C 28.722656 -5.945312 28.335938 -5.675781 27.796875 -5.5625 L 27.71875 -5.546875 C 27.132812 -5.429688 26.691406 -5.53125 26.390625 -5.84375 C 26.097656 -6.164062 25.773438 -6.671875 25.421875 -7.359375 L 24.03125 -10.046875 C 23.882812 -10.523438 23.660156 -10.734375 23.359375 -10.671875 C 23.265625 -10.648438 23.195312 -10.554688 23.15625 -10.390625 C 23.113281 -10.234375 23.019531 -10.015625 22.875 -9.734375 C 22.28125 -7.472656 21.289062 -5.8125 19.90625 -4.75 C 18.519531 -3.695312 16.671875 -2.957031 14.359375 -2.53125 C 11.867188 -2.019531 9.664062 -2.082031 7.75 -2.71875 C 5.84375 -3.363281 4.34375 -4.78125 3.25 -6.96875 C 2.15625 -9.164062 1.539062 -12.316406 1.40625 -16.421875 L 1.203125 -21.640625 C 1.117188 -25.242188 1.601562 -28.25 2.65625 -30.65625 C 3.707031 -33.0625 5.144531 -34.960938 6.96875 -36.359375 C 8.789062 -37.765625 10.75 -38.6875 12.84375 -39.125 C 14.125 -39.382812 15.289062 -39.410156 16.34375 -39.203125 C 17.40625 -38.992188 18.257812 -38.675781 18.90625 -38.25 C 19.15625 -38.039062 19.328125 -37.945312 19.421875 -37.96875 C 19.617188 -38.007812 19.722656 -38.234375 19.734375 -38.640625 L 19.3125 -50.609375 C 19.3125 -52.097656 19.898438 -52.960938 21.078125 -53.203125 C 22.191406 -53.441406 22.929688 -52.8125 23.296875 -51.3125 L 23.640625 -50 C 23.691406 -49.757812 23.816406 -49.660156 24.015625 -49.703125 C 24.253906 -49.753906 24.347656 -49.898438 24.296875 -50.140625 L 24.28125 -50.96875 C 24.226562 -52.6875 24.882812 -53.691406 26.25 -53.984375 Z M 12.65625 -35.640625 C 11.144531 -35.328125 9.796875 -34.703125 8.609375 -33.765625 C 7.429688 -32.828125 6.554688 -31.710938 5.984375 -30.421875 C 5.410156 -29.140625 5.25 -27.765625 5.5 -26.296875 C 5.96875 -28.472656 6.75 -30.285156 7.84375 -31.734375 C 8.945312 -33.191406 10.550781 -34.492188 12.65625 -35.640625 Z M 20.46875 -12.828125 L 19.96875 -30.21875 C 19.945312 -30.570312 19.78125 -30.890625 19.46875 -31.171875 C 18.9375 -31.515625 18.347656 -31.757812 17.703125 -31.90625 C 17.066406 -32.0625 16.238281 -32.035156 15.21875 -31.828125 C 13.414062 -31.441406 11.96875 -30.5625 10.875 -29.1875 C 9.78125 -27.8125 9.265625 -25.863281 9.328125 -23.34375 L 9.546875 -17.953125 C 9.648438 -14.304688 10.28125 -11.96875 11.4375 -10.9375 C 12.59375 -9.90625 14.144531 -9.59375 16.09375 -10 C 16.914062 -10.164062 17.65625 -10.429688 18.3125 -10.796875 C 18.976562 -11.160156 19.5625 -11.503906 20.0625 -11.828125 C 20.363281 -12.097656 20.5 -12.429688 20.46875 -12.828125 Z M 20.46875 -12.828125"/></g></g></g><g fill-opacity="1" fill="#beae92"><g transform="translate(249.738641, 273.049481)"><g><path d="M 1.03125 -5.375 C 1 -5.726562 0.988281 -6.113281 1 -6.53125 C 1.070312 -7.875 1.34375 -9.039062 1.8125 -10.03125 C 2.28125 -11.019531 3.039062 -12 4.09375 -12.96875 C 4.53125 -13.34375 4.9375 -13.707031 5.3125 -14.0625 C 5.6875 -14.425781 6.078125 -14.8125 6.484375 -15.21875 C 6.753906 -15.46875 7.050781 -15.867188 7.375 -16.421875 C 7.707031 -16.972656 7.859375 -17.59375 7.828125 -18.28125 C 7.796875 -18.9375 7.566406 -19.425781 7.140625 -19.75 C 6.710938 -20.070312 6.1875 -20.171875 5.5625 -20.046875 C 5.03125 -19.929688 4.523438 -19.679688 4.046875 -19.296875 C 3.578125 -18.921875 3.203125 -18.492188 2.921875 -18.015625 C 2.804688 -17.847656 2.65625 -17.742188 2.46875 -17.703125 C 2.289062 -17.660156 2.160156 -17.679688 2.078125 -17.765625 C 1.953125 -17.867188 1.875 -18.023438 1.84375 -18.234375 C 1.820312 -18.441406 1.875 -18.640625 2 -18.828125 C 2.113281 -19.023438 2.265625 -19.234375 2.453125 -19.453125 C 2.640625 -19.679688 2.832031 -19.882812 3.03125 -20.0625 C 3.164062 -20.195312 3.210938 -20.304688 3.171875 -20.390625 C 3.140625 -20.472656 3.066406 -20.5 2.953125 -20.46875 C 2.835938 -20.445312 2.734375 -20.378906 2.640625 -20.265625 L 1.859375 -19.5 C 1.628906 -19.21875 1.390625 -19.050781 1.140625 -19 C 1.035156 -18.976562 0.929688 -19.003906 0.828125 -19.078125 C 0.648438 -19.234375 0.570312 -19.410156 0.59375 -19.609375 C 0.613281 -19.816406 0.679688 -20.007812 0.796875 -20.1875 C 1.035156 -20.613281 1.394531 -21.039062 1.875 -21.46875 C 2.363281 -21.90625 2.914062 -22.296875 3.53125 -22.640625 C 4.15625 -22.992188 4.773438 -23.234375 5.390625 -23.359375 C 6.335938 -23.554688 7.265625 -23.523438 8.171875 -23.265625 C 9.078125 -23.003906 9.78125 -22.429688 10.28125 -21.546875 C 10.757812 -20.753906 11.007812 -19.851562 11.03125 -18.84375 C 11.050781 -17.84375 10.859375 -16.835938 10.453125 -15.828125 C 10.054688 -14.828125 9.457031 -13.945312 8.65625 -13.1875 C 8.25 -12.757812 7.878906 -12.390625 7.546875 -12.078125 C 7.210938 -11.765625 6.867188 -11.398438 6.515625 -10.984375 C 6.253906 -10.679688 6.054688 -10.453125 5.921875 -10.296875 C 5.796875 -10.148438 5.6875 -9.992188 5.59375 -9.828125 C 5.507812 -9.671875 5.390625 -9.40625 5.234375 -9.03125 C 5.003906 -8.644531 4.847656 -8.128906 4.765625 -7.484375 C 4.691406 -6.847656 4.664062 -6.039062 4.6875 -5.0625 C 4.695312 -4.894531 4.765625 -4.757812 4.890625 -4.65625 C 5.015625 -4.5625 5.175781 -4.535156 5.375 -4.578125 L 10.546875 -5.625 C 10.703125 -5.65625 10.851562 -5.632812 11 -5.5625 C 11.144531 -5.5 11.210938 -5.351562 11.203125 -5.125 C 11.222656 -4.75 11.019531 -4.515625 10.59375 -4.421875 C 10.4375 -4.390625 10.300781 -4.332031 10.1875 -4.25 C 10.132812 -4.1875 10.09375 -4.066406 10.0625 -3.890625 C 10.09375 -3.753906 10.179688 -3.691406 10.328125 -3.703125 C 10.472656 -3.734375 10.597656 -3.738281 10.703125 -3.71875 C 10.941406 -3.71875 11.125 -3.679688 11.25 -3.609375 C 11.382812 -3.546875 11.457031 -3.382812 11.46875 -3.125 C 11.5 -2.644531 11.210938 -2.34375 10.609375 -2.21875 L 2.453125 -0.546875 C 2.035156 -0.460938 1.765625 -0.570312 1.640625 -0.875 C 1.472656 -1.488281 1.34375 -2.132812 1.25 -2.8125 C 1.15625 -3.5 1.097656 -4.082031 1.078125 -4.5625 C 1.054688 -5.050781 1.039062 -5.320312 1.03125 -5.375 Z M 6.4375 -21.84375 C 7.257812 -21.71875 7.894531 -21.390625 8.34375 -20.859375 C 8.800781 -20.335938 9.125 -19.738281 9.3125 -19.0625 C 9.394531 -19.957031 9.179688 -20.671875 8.671875 -21.203125 C 8.171875 -21.734375 7.425781 -21.945312 6.4375 -21.84375 Z M 5.21875 -11.625 C 4.507812 -11.332031 3.925781 -10.765625 3.46875 -9.921875 C 3.007812 -9.078125 2.800781 -8.054688 2.84375 -6.859375 C 3.007812 -7.648438 3.195312 -8.316406 3.40625 -8.859375 C 3.613281 -9.398438 3.867188 -9.878906 4.171875 -10.296875 C 4.472656 -10.710938 4.820312 -11.15625 5.21875 -11.625 Z M 5.21875 -11.625"/></g></g></g><path stroke-miterlimit="4" stroke-opacity="1" stroke-width="4" stroke="#d6ccba" d="M 1.998958 1.999222 L 104.346157 2.001259" stroke-linejoin="miter" fill="none" transform="matrix(-1.499867, 0.312844, -0.312844, -1.499867, 323.818928, 229.85758)" stroke-linecap="round"/></svg>