<svg xmlns="http://www.w3.org/2000/svg" xmlns:xlink="http://www.w3.org/1999/xlink" width="480" zoomAndPan="magnify" viewBox="0 0 360 503.999982" height="672" preserveAspectRatio="xMidYMid meet" version="1.0"><defs><g/></defs><g fill="#1b4a92" fill-opacity="1"><g transform="translate(51.561729, 296.042984)"><g><path d="M 88.84375 -12.15625 C 89.007812 -9.96875 90.601562 -8.988281 93.625 -9.21875 C 98.175781 -9.570312 103.441406 -11.84375 109.421875 -16.03125 C 111.359375 -17.382812 113.050781 -18.878906 114.5 -20.515625 C 114.78125 -20.378906 114.941406 -20.046875 114.984375 -19.515625 C 115.054688 -18.578125 114.96875 -17.96875 114.71875 -17.6875 C 110.019531 -13.1875 104.179688 -9.953125 97.203125 -7.984375 C 95.359375 -7.429688 93.296875 -7.066406 91.015625 -6.890625 C 88.742188 -6.710938 86.785156 -7.265625 85.140625 -8.546875 C 83.492188 -9.835938 82.613281 -11.210938 82.5 -12.671875 C 82.382812 -14.140625 82.425781 -15.457031 82.625 -16.625 C 82.820312 -17.800781 83.25 -19.28125 83.90625 -21.0625 C 86.851562 -29.101562 92.554688 -39.492188 101.015625 -52.234375 L 112.15625 -68.21875 L 123.921875 -83.859375 L 135.5625 -98.53125 L 146.578125 -111.671875 L 156.1875 -122.90625 C 154.71875 -121.675781 153.144531 -120.296875 151.46875 -118.765625 L 145.984375 -113.375 L 130.046875 -96.46875 L 104 -67.671875 C 90.457031 -52.648438 75.664062 -34.148438 59.625 -12.171875 C 55.96875 -7.210938 53.484375 -4.6875 52.171875 -4.59375 C 51.804688 -4.5625 51.40625 -4.78125 50.96875 -5.25 C 50.539062 -5.71875 50.242188 -6.976562 50.078125 -9.03125 C 49.921875 -11.09375 50.375 -14.28125 51.4375 -18.59375 C 52.507812 -22.90625 54.132812 -27.742188 56.3125 -33.109375 C 58.488281 -38.472656 61.1875 -44.285156 64.40625 -50.546875 C 67.625 -56.816406 71.28125 -63.363281 75.375 -70.1875 C 83.988281 -84.4375 93.773438 -98.789062 104.734375 -113.25 L 99.015625 -106.8125 L 89.90625 -95.953125 L 77.125 -80.078125 L 60.4375 -58.78125 C 39.789062 -32.289062 21.953125 -14.421875 6.921875 -5.171875 C 0.992188 -1.566406 -4.414062 0.421875 -9.3125 0.796875 C -14.21875 1.179688 -17.96875 0.539062 -20.5625 -1.125 C -23.15625 -2.789062 -24.566406 -5.109375 -24.796875 -8.078125 C -24.960938 -10.265625 -24.488281 -11.90625 -23.375 -13 C -21.664062 -14.71875 -20.164062 -15.625 -18.875 -15.71875 C -15.6875 -15.96875 -14 -14.882812 -13.8125 -12.46875 C -13.726562 -11.4375 -14.097656 -10.492188 -14.921875 -9.640625 C -15.742188 -8.785156 -16.867188 -8.300781 -18.296875 -8.1875 C -19.734375 -8.070312 -20.898438 -8.269531 -21.796875 -8.78125 L -21.796875 -7.84375 C -21.617188 -5.550781 -20.5 -3.816406 -18.4375 -2.640625 C -16.375 -1.460938 -13.738281 -0.992188 -10.53125 -1.234375 C -7.320312 -1.484375 -4.226562 -2.207031 -1.25 -3.40625 C 1.726562 -4.613281 5.007812 -6.472656 8.59375 -8.984375 C 12.1875 -11.492188 16.148438 -14.722656 20.484375 -18.671875 C 24.816406 -22.628906 29.601562 -27.4375 34.84375 -33.09375 C 40.082031 -38.75 45.847656 -45.34375 52.140625 -52.875 L 72.90625 -78.578125 C 85.1875 -94.273438 95.726562 -106.691406 104.53125 -115.828125 C 110.894531 -122.410156 114.675781 -125.75 115.875 -125.84375 C 117.289062 -125.957031 118.019531 -125.75 118.0625 -125.21875 C 118.082031 -124.90625 117.800781 -124.4375 117.21875 -123.8125 L 115.171875 -121.75 C 112.890625 -119.375 110.585938 -116.265625 108.265625 -112.421875 L 100.75 -99.484375 L 82.609375 -66.09375 C 65.921875 -33.5625 56.546875 -14.644531 54.484375 -9.34375 L 66.40625 -25.296875 L 76.78125 -38.875 L 86.6875 -51.265625 L 97.078125 -63.578125 L 108.859375 -77.09375 L 123.140625 -93.015625 C 145.171875 -117.140625 159.269531 -129.441406 165.4375 -129.921875 C 165.945312 -129.960938 166.21875 -129.773438 166.25 -129.359375 C 166.28125 -128.929688 165.648438 -128.203125 164.359375 -127.171875 C 163.078125 -126.148438 161.269531 -124.445312 158.9375 -122.0625 C 156.601562 -119.6875 153.664062 -116.234375 150.125 -111.703125 C 146.59375 -107.179688 142.984375 -102.265625 139.296875 -96.953125 L 128.15625 -80.09375 L 116.953125 -62.125 C 100.203125 -34.257812 91.378906 -19.347656 90.484375 -17.390625 C 89.316406 -14.835938 88.769531 -13.09375 88.84375 -12.15625 Z M 88.84375 -12.15625 "/></g></g></g><g fill="#beae92" fill-opacity="1"><g transform="translate(215.045512, 295.508101)"><g><path d="M 4.234375 -20.109375 C 3.523438 -24.222656 4.40625 -26.691406 6.875 -27.515625 L 7.765625 -27.515625 C 9.640625 -27.515625 10.988281 -26.335938 11.8125 -23.984375 C 12.519531 -22.109375 13.398438 -20.347656 14.453125 -18.703125 C 15.515625 -17.054688 17.109375 -15.644531 19.234375 -14.46875 C 19.460938 -14.226562 19.8125 -14.109375 20.28125 -14.109375 C 20.75 -14.109375 21.015625 -14.253906 21.078125 -14.546875 C 21.140625 -14.847656 20.992188 -15.113281 20.640625 -15.34375 C 18.753906 -16.519531 17.164062 -18.109375 15.875 -20.109375 C 14.582031 -22.109375 13.878906 -23.632812 13.765625 -24.6875 C 13.640625 -26.101562 13.691406 -27.425781 13.921875 -28.65625 C 14.160156 -29.894531 14.867188 -30.691406 16.046875 -31.046875 L 17.109375 -31.046875 C 18.046875 -31.046875 18.925781 -30.8125 19.75 -30.34375 C 20.570312 -29.875 21.222656 -29.050781 21.703125 -27.875 C 22.398438 -25.632812 24.394531 -23.304688 27.6875 -20.890625 C 30.976562 -18.484375 34.625 -17.28125 38.625 -17.28125 C 43.6875 -17.28125 47.890625 -18.570312 51.234375 -21.15625 C 54.585938 -23.75 56.617188 -26.988281 57.328125 -30.875 C 57.796875 -33.570312 57.675781 -35.976562 56.96875 -38.09375 C 56.269531 -40.21875 54.769531 -42.453125 52.46875 -44.796875 C 50.175781 -47.148438 46.738281 -49.972656 42.15625 -53.265625 L 37.21875 -56.796875 C 30.039062 -61.972656 24.953125 -66.675781 21.953125 -70.90625 C 18.960938 -75.144531 18.054688 -80.492188 19.234375 -86.953125 C 19.929688 -91.191406 21.28125 -95.015625 23.28125 -98.421875 C 25.28125 -101.835938 27.75 -104.835938 30.6875 -107.421875 C 36.332031 -112.128906 42.976562 -115.007812 50.625 -116.0625 C 52.738281 -116.414062 54.972656 -116.59375 57.328125 -116.59375 C 61.910156 -116.59375 66.289062 -115.859375 70.46875 -114.390625 C 74.644531 -112.921875 78.203125 -110.890625 81.140625 -108.296875 C 84.078125 -105.710938 85.78125 -102.65625 86.25 -99.125 C 86.375 -98.65625 86.257812 -98.007812 85.90625 -97.1875 C 85.550781 -96.363281 85.078125 -95.773438 84.484375 -95.421875 C 84.015625 -95.191406 83.546875 -95.078125 83.078125 -95.078125 C 82.023438 -95.078125 80.96875 -95.84375 79.90625 -97.375 C 79.082031 -99.019531 78.257812 -100.253906 77.4375 -101.078125 C 76.613281 -101.898438 75.554688 -102.835938 74.265625 -103.890625 C 74.140625 -104.015625 73.960938 -104.078125 73.734375 -104.078125 C 73.378906 -104.078125 73.082031 -103.957031 72.84375 -103.71875 C 72.613281 -103.476562 72.613281 -103.242188 72.84375 -103.015625 C 74.726562 -101.367188 76.082031 -99.925781 76.90625 -98.6875 C 77.726562 -97.457031 78.082031 -96.191406 77.96875 -94.890625 C 77.96875 -94.421875 77.847656 -93.832031 77.609375 -93.125 C 77.378906 -92.425781 76.96875 -91.84375 76.375 -91.375 C 75.789062 -90.78125 75.144531 -90.484375 74.4375 -90.484375 C 73.613281 -90.484375 72.726562 -90.863281 71.78125 -91.625 C 70.84375 -92.394531 69.671875 -93.367188 68.265625 -94.546875 C 66.503906 -96.191406 64.328125 -97.304688 61.734375 -97.890625 C 59.148438 -98.484375 56.914062 -98.78125 55.03125 -98.78125 C 51.03125 -98.78125 47.851562 -97.632812 45.5 -95.34375 C 43.15625 -93.050781 41.6875 -90.375 41.09375 -87.3125 C 40.507812 -84.132812 41.273438 -81.3125 43.390625 -78.84375 C 45.503906 -76.375 49.09375 -73.4375 54.15625 -70.03125 L 59.4375 -66.328125 C 64.144531 -62.910156 68.054688 -59.613281 71.171875 -56.4375 C 74.285156 -53.269531 76.488281 -49.800781 77.78125 -46.03125 C 79.082031 -42.269531 79.257812 -37.742188 78.3125 -32.453125 C 76.550781 -22.460938 72.140625 -14.378906 65.078125 -8.203125 C 58.023438 -2.023438 48.738281 1.0625 37.21875 1.0625 C 27.34375 1.0625 19.640625 -0.90625 14.109375 -4.84375 C 8.585938 -8.789062 5.296875 -13.878906 4.234375 -20.109375 Z M 68.09375 -29.8125 C 72.082031 -42.863281 67.550781 -52.15625 54.5 -57.6875 C 59.09375 -53.914062 62.5625 -50 64.90625 -45.9375 C 67.257812 -41.882812 68.320312 -36.507812 68.09375 -29.8125 Z M 68.09375 -29.8125 "/></g></g></g><g fill="#beae92" fill-opacity="1"><g transform="translate(188.866939, 257.956)"><g><path d="M 12.03125 0.3125 C 10.707031 0.3125 9.410156 0.160156 8.140625 -0.140625 C 6.867188 -0.441406 5.726562 -0.90625 4.71875 -1.53125 C 3.71875 -2.15625 2.921875 -2.941406 2.328125 -3.890625 C 1.734375 -4.847656 1.4375 -5.972656 1.4375 -7.265625 C 1.4375 -8.285156 1.648438 -9.21875 2.078125 -10.0625 C 2.503906 -10.90625 3.054688 -11.640625 3.734375 -12.265625 C 4.421875 -12.898438 5.171875 -13.394531 5.984375 -13.75 C 5.335938 -14.164062 4.800781 -14.691406 4.375 -15.328125 C 3.957031 -15.960938 3.75 -16.695312 3.75 -17.53125 C 3.75 -18.507812 4.019531 -19.34375 4.5625 -20.03125 C 5.113281 -20.726562 5.832031 -21.265625 6.71875 -21.640625 C 7.601562 -22.015625 8.523438 -22.203125 9.484375 -22.203125 C 10.585938 -22.203125 11.617188 -22.03125 12.578125 -21.6875 C 13.546875 -21.34375 14.351562 -20.785156 15 -20.015625 C 15.25 -19.742188 15.34375 -19.457031 15.28125 -19.15625 C 15.21875 -18.863281 15.050781 -18.648438 14.78125 -18.515625 C 14.507812 -18.378906 14.164062 -18.425781 13.75 -18.65625 C 13.289062 -18.945312 12.851562 -19.148438 12.4375 -19.265625 C 12.019531 -19.378906 11.585938 -19.4375 11.140625 -19.4375 C 10.347656 -19.4375 9.71875 -19.222656 9.25 -18.796875 C 8.78125 -18.367188 8.546875 -17.8125 8.546875 -17.125 C 8.546875 -16.644531 8.648438 -16.203125 8.859375 -15.796875 C 9.066406 -15.390625 9.398438 -15.039062 9.859375 -14.75 C 10.585938 -14.851562 11.238281 -14.835938 11.8125 -14.703125 C 12.394531 -14.566406 12.6875 -14.175781 12.6875 -13.53125 C 12.6875 -13.050781 12.476562 -12.707031 12.0625 -12.5 C 11.65625 -12.289062 11.15625 -12.195312 10.5625 -12.21875 C 9.96875 -12.238281 9.421875 -12.320312 8.921875 -12.46875 C 8.398438 -11.957031 8.019531 -11.335938 7.78125 -10.609375 C 7.539062 -9.878906 7.421875 -9.097656 7.421875 -8.265625 C 7.421875 -6.515625 7.941406 -5.078125 8.984375 -3.953125 C 10.023438 -2.835938 11.488281 -2.28125 13.375 -2.28125 C 14.976562 -2.28125 16.171875 -2.632812 16.953125 -3.34375 C 17.734375 -4.0625 18.113281 -4.992188 18.09375 -6.140625 C 18.09375 -6.910156 17.847656 -7.503906 17.359375 -7.921875 C 16.867188 -8.335938 16.34375 -8.546875 15.78125 -8.546875 C 15.09375 -8.546875 14.53125 -8.332031 14.09375 -7.90625 C 13.65625 -7.476562 13.4375 -6.960938 13.4375 -6.359375 C 13.4375 -6.210938 13.335938 -6.113281 13.140625 -6.0625 C 12.941406 -6.007812 12.710938 -6.035156 12.453125 -6.140625 C 12.191406 -6.242188 11.960938 -6.4375 11.765625 -6.71875 C 11.578125 -7 11.484375 -7.390625 11.484375 -7.890625 C 11.484375 -8.617188 11.71875 -9.265625 12.1875 -9.828125 C 12.664062 -10.390625 13.320312 -10.941406 14.15625 -11.484375 C 14.757812 -11.867188 15.4375 -12.257812 16.1875 -12.65625 C 16.9375 -13.050781 17.757812 -13.5 18.65625 -14 C 19.375 -14.414062 20.050781 -14.84375 20.6875 -15.28125 C 21.320312 -15.71875 21.835938 -16.160156 22.234375 -16.609375 C 22.628906 -17.054688 22.828125 -17.5 22.828125 -17.9375 C 22.828125 -18.644531 22.421875 -19 21.609375 -19 C 21.503906 -19 21.347656 -18.988281 21.140625 -18.96875 C 20.929688 -18.945312 20.742188 -18.90625 20.578125 -18.84375 C 20.160156 -18.675781 19.878906 -18.675781 19.734375 -18.84375 C 19.585938 -19.007812 19.539062 -19.242188 19.59375 -19.546875 C 19.644531 -19.859375 19.753906 -20.128906 19.921875 -20.359375 C 20.171875 -20.773438 20.59375 -21.15625 21.1875 -21.5 C 21.78125 -21.84375 22.578125 -22.023438 23.578125 -22.046875 C 24.097656 -22.066406 24.671875 -21.96875 25.296875 -21.75 C 25.921875 -21.53125 26.457031 -21.175781 26.90625 -20.6875 C 27.363281 -20.195312 27.59375 -19.519531 27.59375 -18.65625 C 27.59375 -17.507812 27.234375 -16.484375 26.515625 -15.578125 C 25.804688 -14.671875 24.84375 -13.894531 23.625 -13.25 C 22.40625 -12.601562 21.046875 -12.078125 19.546875 -11.671875 C 19.960938 -11.503906 20.382812 -11.238281 20.8125 -10.875 C 21.238281 -10.507812 21.59375 -10.046875 21.875 -9.484375 C 22.15625 -8.921875 22.296875 -8.222656 22.296875 -7.390625 C 22.296875 -6.035156 21.992188 -4.867188 21.390625 -3.890625 C 20.785156 -2.921875 19.976562 -2.125 18.96875 -1.5 C 17.96875 -0.875 16.863281 -0.414062 15.65625 -0.125 C 14.445312 0.164062 13.238281 0.3125 12.03125 0.3125 Z M 12.03125 0.3125 "/></g></g></g></svg>