<svg version="1.0" preserveAspectRatio="xMidYMid meet" viewBox="129.0708661417323 221.184 720.261529808774 112.896" zoomAndPan="magnify" xmlns:xlink="http://www.w3.org/1999/xlink" xmlns="http://www.w3.org/2000/svg" style="max-height: 500px" width="720.261529808774" height="112.896"><defs><g/></defs><g fill-opacity="1" fill="#1b4a92"><g transform="translate(156.632169, 314.370107)"><g><path d="M 63.234375 -3.71875 C 63.234375 -2.164062 64.304688 -1.390625 66.453125 -1.390625 C 69.660156 -1.390625 73.484375 -2.703125 77.921875 -5.328125 C 79.367188 -6.171875 80.644531 -7.128906 81.75 -8.203125 C 81.9375 -8.097656 82.03125 -7.859375 82.03125 -7.484375 C 82.03125 -6.816406 81.9375 -6.394531 81.75 -6.21875 C 78.207031 -3.289062 73.921875 -1.328125 68.890625 -0.328125 C 67.554688 -0.0351562 66.082031 0.109375 64.46875 0.109375 C 62.863281 0.109375 61.515625 -0.390625 60.421875 -1.390625 C 59.335938 -2.390625 58.796875 -3.40625 58.796875 -4.4375 C 58.796875 -5.46875 58.894531 -6.390625 59.09375 -7.203125 C 59.300781 -8.023438 59.679688 -9.046875 60.234375 -10.265625 C 62.742188 -15.773438 67.328125 -22.78125 73.984375 -31.28125 L 82.703125 -41.9375 L 91.84375 -52.296875 L 100.84375 -62.015625 L 109.328125 -70.65625 L 116.703125 -78.046875 C 115.585938 -77.265625 114.40625 -76.375 113.15625 -75.375 L 108.984375 -71.890625 L 96.84375 -60.84375 L 76.9375 -41.984375 C 66.582031 -32.148438 55.15625 -19.929688 42.65625 -5.328125 C 39.800781 -2.035156 37.914062 -0.390625 37 -0.390625 C 36.738281 -0.390625 36.46875 -0.5625 36.1875 -0.90625 C 35.914062 -1.257812 35.78125 -2.164062 35.78125 -3.625 C 35.78125 -5.09375 36.269531 -7.3125 37.25 -10.28125 C 38.226562 -13.257812 39.628906 -16.578125 41.453125 -20.234375 C 43.285156 -23.898438 45.503906 -27.847656 48.109375 -32.078125 C 50.722656 -36.316406 53.65625 -40.726562 56.90625 -45.3125 C 63.75 -54.894531 71.421875 -64.472656 79.921875 -74.046875 L 75.546875 -69.828125 L 68.5625 -62.671875 L 58.6875 -52.1875 L 45.765625 -38.109375 C 29.785156 -20.578125 16.25 -8.960938 5.15625 -3.265625 C 0.789062 -1.046875 -3.125 0.0625 -6.59375 0.0625 C -10.070312 0.0625 -12.679688 -0.59375 -14.421875 -1.90625 C -16.160156 -3.21875 -17.03125 -4.929688 -17.03125 -7.046875 C -17.03125 -8.597656 -16.601562 -9.722656 -15.75 -10.421875 C -14.457031 -11.535156 -13.347656 -12.09375 -12.421875 -12.09375 C -10.171875 -12.09375 -9.046875 -11.242188 -9.046875 -9.546875 C -9.046875 -8.804688 -9.359375 -8.15625 -9.984375 -7.59375 C -10.609375 -7.039062 -11.429688 -6.765625 -12.453125 -6.765625 C -13.472656 -6.765625 -14.273438 -6.96875 -14.859375 -7.375 L -14.921875 -6.71875 C -14.921875 -5.082031 -14.226562 -3.789062 -12.84375 -2.84375 C -11.457031 -1.90625 -9.625 -1.4375 -7.34375 -1.4375 C -5.070312 -1.4375 -2.851562 -1.78125 -0.6875 -2.46875 C 1.46875 -3.15625 3.875 -4.28125 6.53125 -5.84375 C 9.195312 -7.414062 12.164062 -9.476562 15.4375 -12.03125 C 18.71875 -14.582031 22.351562 -17.707031 26.34375 -21.40625 C 30.34375 -25.101562 34.765625 -29.429688 39.609375 -34.390625 L 55.625 -51.359375 C 65.132812 -61.753906 73.234375 -69.925781 79.921875 -75.875 C 84.765625 -80.164062 87.613281 -82.3125 88.46875 -82.3125 C 89.46875 -82.3125 89.96875 -82.125 89.96875 -81.75 C 89.96875 -81.53125 89.742188 -81.21875 89.296875 -80.8125 L 87.75 -79.484375 C 86.007812 -77.929688 84.210938 -75.859375 82.359375 -73.265625 L 76.375 -64.5625 L 61.78125 -42.046875 C 48.25 -20.046875 40.613281 -7.234375 38.875 -3.609375 L 48.140625 -14.203125 L 56.1875 -23.1875 L 63.84375 -31.390625 L 71.828125 -39.484375 L 80.875 -48.359375 L 91.796875 -58.796875 C 108.617188 -74.585938 119.210938 -82.484375 123.578125 -82.484375 C 123.941406 -82.484375 124.125 -82.332031 124.125 -82.03125 C 124.125 -81.738281 123.644531 -81.269531 122.6875 -80.625 C 121.726562 -79.976562 120.359375 -78.875 118.578125 -77.3125 C 116.804688 -75.757812 114.550781 -73.484375 111.8125 -70.484375 C 109.082031 -67.492188 106.273438 -64.222656 103.390625 -60.671875 L 94.625 -49.421875 L 85.75 -37.390625 C 72.4375 -18.671875 65.410156 -8.648438 64.671875 -7.328125 C 63.710938 -5.585938 63.234375 -4.382812 63.234375 -3.71875 Z M 63.234375 -3.71875"/></g></g></g><g fill-opacity="1" fill="#1b4a92"><g transform="translate(259.377352, 314.370107)"><g><path d="M 22.125 0.109375 C 18.425781 0.109375 16.578125 -1.035156 16.578125 -3.328125 C 16.578125 -5.210938 17.648438 -7.578125 19.796875 -10.421875 L 23.296875 -14.859375 L 22.734375 -15.09375 C 16.523438 -7.4375 10.664062 -2.628906 5.15625 -0.671875 C 3.644531 -0.148438 2.332031 0.109375 1.21875 0.109375 C -3.332031 0.109375 -5.609375 -2.3125 -5.609375 -7.15625 C -5.609375 -12.851562 -3.332031 -18.289062 1.21875 -23.46875 C 7.945312 -31.300781 14.710938 -35.941406 21.515625 -37.390625 C 23.554688 -37.796875 25.296875 -38 26.734375 -38 C 28.171875 -38 29.304688 -37.894531 30.140625 -37.6875 C 30.972656 -37.488281 31.707031 -37.203125 32.34375 -36.828125 C 33.664062 -35.972656 34.328125 -34.925781 34.328125 -33.6875 C 34.328125 -32.457031 34.109375 -31.285156 33.671875 -30.171875 L 39.109375 -36.890625 C 40.097656 -36.585938 41.019531 -36.4375 41.875 -36.4375 C 44.0625 -36.4375 45.632812 -36.507812 46.59375 -36.65625 L 27.90625 -14.140625 C 23.46875 -8.960938 21.25 -5.320312 21.25 -3.21875 C 21.25 -2.03125 21.945312 -1.4375 23.34375 -1.4375 C 24.75 -1.4375 26.367188 -1.863281 28.203125 -2.71875 C 30.035156 -3.570312 31.859375 -4.660156 33.671875 -5.984375 C 35.484375 -7.316406 37.25 -8.796875 38.96875 -10.421875 C 40.6875 -12.054688 42.273438 -13.648438 43.734375 -15.203125 C 45.191406 -16.753906 46.476562 -18.195312 47.59375 -19.53125 L 50.25 -22.515625 L 51.421875 -21.578125 L 48.59375 -18.359375 C 37.9375 -6.046875 29.113281 0.109375 22.125 0.109375 Z M 6.765625 -19.859375 C 1.554688 -13.535156 -1.046875 -8.359375 -1.046875 -4.328125 C -1.046875 -2.472656 -0.21875 -1.546875 1.4375 -1.546875 C 6.84375 -1.546875 14.628906 -7.519531 24.796875 -19.46875 L 29.453125 -25.078125 C 31.671875 -28.441406 32.78125 -30.878906 32.78125 -32.390625 C 32.78125 -34.984375 31.484375 -36.28125 28.890625 -36.28125 C 25.378906 -36.28125 20.332031 -33.285156 13.75 -27.296875 C 11.5 -25.222656 9.171875 -22.742188 6.765625 -19.859375 Z M 6.765625 -19.859375"/></g></g></g><g fill-opacity="1" fill="#1b4a92"><g transform="translate(314.920983, 314.370107)"><g><path d="M -5.546875 -3.21875 C -5.546875 -2.101562 -4.65625 -1.523438 -2.875 -1.484375 C -1.101562 -1.453125 0.675781 -1.84375 2.46875 -2.65625 C 4.257812 -3.46875 6.039062 -4.503906 7.8125 -5.765625 C 9.59375 -7.023438 11.3125 -8.441406 12.96875 -10.015625 C 14.632812 -11.585938 16.1875 -13.148438 17.625 -14.703125 C 19.070312 -16.253906 20.367188 -17.710938 21.515625 -19.078125 L 24.40625 -22.515625 L 25.625 -21.578125 L 22.734375 -18.25 C 12.421875 -6.007812 3.753906 0.109375 -3.265625 0.109375 C -5.304688 0.109375 -6.832031 -0.296875 -7.84375 -1.109375 C -8.863281 -1.921875 -9.375 -2.804688 -9.375 -3.765625 C -9.375 -4.734375 -9.328125 -5.53125 -9.234375 -6.15625 C -9.140625 -6.78125 -8.941406 -7.472656 -8.640625 -8.234375 C -8.347656 -8.992188 -7.914062 -9.890625 -7.34375 -10.921875 C -6.769531 -11.960938 -6.003906 -13.222656 -5.046875 -14.703125 L 3.609375 -27.171875 L 17.921875 -47.3125 L 13.53125 -47.3125 C 12.425781 -47.3125 11.875 -47.578125 11.875 -48.109375 C 11.875 -48.648438 12.578125 -48.921875 13.984375 -48.921875 L 19.03125 -48.921875 L 29.28125 -63.34375 C 31.875 -62.9375 34.445312 -62.9375 37 -63.34375 L 26.296875 -48.921875 L 40.59375 -48.921875 C 41.632812 -48.921875 42.15625 -48.648438 42.15625 -48.109375 C 42.15625 -47.578125 41.691406 -47.3125 40.765625 -47.3125 L 25.078125 -47.3125 L 2.109375 -16.078125 C -1.847656 -10.492188 -4.113281 -7.054688 -4.6875 -5.765625 C -5.257812 -4.472656 -5.546875 -3.625 -5.546875 -3.21875 Z M -5.546875 -3.21875"/></g></g></g><g fill-opacity="1" fill="#1b4a92"><g transform="translate(344.617475, 314.370107)"><g><path d="M 29.359375 -50.140625 C 28.828125 -49.660156 28.226562 -49.28125 27.5625 -49 C 26.894531 -48.726562 26.132812 -48.59375 25.28125 -48.59375 C 24.4375 -48.59375 23.707031 -48.914062 23.09375 -49.5625 C 22.488281 -50.207031 22.1875 -50.9375 22.1875 -51.75 C 22.1875 -52.5625 22.332031 -53.28125 22.625 -53.90625 C 22.925781 -54.539062 23.332031 -55.097656 23.84375 -55.578125 C 24.914062 -56.679688 26.085938 -57.234375 27.359375 -57.234375 C 28.640625 -57.234375 29.582031 -56.890625 30.1875 -56.203125 C 30.800781 -55.523438 31.109375 -54.78125 31.109375 -53.96875 C 31.109375 -53.15625 30.953125 -52.429688 30.640625 -51.796875 C 30.328125 -51.171875 29.898438 -50.617188 29.359375 -50.140625 Z M -5.875 -3.1875 C -5.875 -2.019531 -4.78125 -1.4375 -2.59375 -1.4375 C -0.414062 -1.4375 1.640625 -1.9375 3.578125 -2.9375 C 5.515625 -3.9375 7.472656 -5.1875 9.453125 -6.6875 C 11.429688 -8.1875 13.347656 -9.820312 15.203125 -11.59375 L 20.1875 -16.578125 C 21.664062 -18.128906 22.882812 -19.46875 23.84375 -20.59375 C 24.8125 -21.726562 25.382812 -22.390625 25.5625 -22.578125 L 26.671875 -21.578125 C 26.304688 -21.203125 25.613281 -20.414062 24.59375 -19.21875 C 23.582031 -18.019531 22.316406 -16.613281 20.796875 -15 C 19.285156 -13.394531 17.585938 -11.703125 15.703125 -9.921875 C 13.816406 -8.148438 11.835938 -6.523438 9.765625 -5.046875 C 4.992188 -1.609375 0.816406 0.109375 -2.765625 0.109375 C -5.066406 0.109375 -6.898438 -0.304688 -8.265625 -1.140625 C -9.628906 -1.972656 -10.3125 -2.925781 -10.3125 -4 C -10.3125 -5.070312 -10.203125 -6.03125 -9.984375 -6.875 C -9.765625 -7.726562 -9.359375 -8.742188 -8.765625 -9.921875 C -8.171875 -11.109375 -7.347656 -12.492188 -6.296875 -14.078125 C -5.242188 -15.671875 -3.875 -17.578125 -2.1875 -19.796875 C -0.507812 -22.015625 1.53125 -24.585938 3.9375 -27.515625 L 12.484375 -37.609375 C 12.921875 -37.492188 13.828125 -37.4375 15.203125 -37.4375 L 17.796875 -37.4375 C 18.765625 -37.4375 19.546875 -37.472656 20.140625 -37.546875 C 7.898438 -22.941406 1.015625 -14.628906 -0.515625 -12.609375 C -2.054688 -10.597656 -3.195312 -9.019531 -3.9375 -7.875 C -5.226562 -5.914062 -5.875 -4.351562 -5.875 -3.1875 Z M -5.875 -3.1875"/></g></g></g><g fill-opacity="1" fill="#1b4a92"><g transform="translate(375.423287, 314.370107)"><g><path d="M -5.375 -3.265625 C -5.375 -2.046875 -4.488281 -1.4375 -2.71875 -1.4375 C -0.945312 -1.4375 0.941406 -1.90625 2.953125 -2.84375 C 4.972656 -3.789062 6.972656 -4.984375 8.953125 -6.421875 C 10.929688 -7.867188 12.84375 -9.453125 14.6875 -11.171875 C 16.539062 -12.890625 18.226562 -14.523438 19.75 -16.078125 L 23.578125 -20.1875 C 24.609375 -21.375 25.3125 -22.148438 25.6875 -22.515625 L 26.796875 -21.578125 C 26.390625 -21.171875 25.640625 -20.359375 24.546875 -19.140625 C 23.453125 -17.921875 22.117188 -16.515625 20.546875 -14.921875 C 18.972656 -13.328125 17.21875 -11.640625 15.28125 -9.859375 C 13.34375 -8.085938 11.316406 -6.460938 9.203125 -4.984375 C 4.285156 -1.585938 -0.0195312 0.109375 -3.71875 0.109375 C -5.269531 0.109375 -6.550781 -0.3125 -7.5625 -1.15625 C -8.582031 -2.007812 -9.09375 -2.925781 -9.09375 -3.90625 C -9.09375 -4.882812 -9.046875 -5.671875 -8.953125 -6.265625 C -8.859375 -6.859375 -8.664062 -7.53125 -8.375 -8.28125 C -8.082031 -9.039062 -7.65625 -9.929688 -7.09375 -10.953125 C -6.539062 -11.972656 -5.800781 -13.203125 -4.875 -14.640625 L 3.609375 -27.171875 L 46.484375 -88.46875 C 49.140625 -88.09375 51.707031 -88.09375 54.1875 -88.46875 C 18.914062 -39.4375 0.648438 -13.984375 -0.609375 -12.109375 C -1.867188 -10.242188 -2.789062 -8.835938 -3.375 -7.890625 C -3.96875 -6.953125 -4.414062 -6.191406 -4.71875 -5.609375 C -5.15625 -4.710938 -5.375 -3.929688 -5.375 -3.265625 Z M -5.375 -3.265625"/></g></g></g><g fill-opacity="1" fill="#1b4a92"><g transform="translate(406.395498, 314.370107)"><g><path d="M 21.1875 -15.09375 C 12.125 -4.957031 4.914062 0.109375 -0.4375 0.109375 C -5.132812 0.109375 -7.484375 -2.3125 -7.484375 -7.15625 C -7.484375 -12.769531 -5.171875 -18.207031 -0.546875 -23.46875 C 7.765625 -33.15625 16.546875 -38 25.796875 -38 C 28.566406 -38 30.617188 -37.144531 31.953125 -35.4375 C 32.359375 -34.882812 32.5625 -34.367188 32.5625 -33.890625 C 32.5625 -33.410156 32.550781 -33.101562 32.53125 -32.96875 C 32.507812 -32.84375 32.5 -32.6875 32.5 -32.5 L 60.015625 -72 L 71.65625 -88.46875 C 73.03125 -87.875 74.304688 -87.578125 75.484375 -87.578125 C 76.671875 -87.578125 77.742188 -87.632812 78.703125 -87.75 L 26.015625 -13.859375 C 23.867188 -10.984375 22.25 -8.703125 21.15625 -7.015625 C 20.070312 -5.335938 19.53125 -4.003906 19.53125 -3.015625 C 19.53125 -2.035156 19.988281 -1.546875 20.90625 -1.546875 C 24.5 -1.546875 28.566406 -3.210938 33.109375 -6.546875 C 37.285156 -9.578125 41.851562 -14.125 46.8125 -20.1875 C 47.738281 -21.375 48.382812 -22.148438 48.75 -22.515625 L 49.96875 -21.578125 C 49.5625 -21.171875 48.847656 -20.359375 47.828125 -19.140625 C 46.816406 -17.921875 45.5625 -16.515625 44.0625 -14.921875 C 42.570312 -13.328125 40.890625 -11.640625 39.015625 -9.859375 C 37.148438 -8.085938 35.164062 -6.460938 33.0625 -4.984375 C 28.289062 -1.585938 24.082031 0.109375 20.4375 0.109375 C 16.789062 0.109375 14.988281 -1.082031 15.03125 -3.46875 C 15.070312 -5.851562 17.269531 -9.648438 21.625 -14.859375 Z M 5.109375 -19.75 C -0.179688 -13.3125 -2.828125 -8.171875 -2.828125 -4.328125 C -2.828125 -2.472656 -1.90625 -1.546875 -0.0625 -1.546875 C 3.226562 -1.546875 7.816406 -4.226562 13.703125 -9.59375 L 18.25 -13.984375 C 20.875 -16.566406 23.019531 -19.039062 24.6875 -21.40625 L 29.625 -28.453125 C 30.46875 -30.148438 30.890625 -31.609375 30.890625 -32.828125 C 30.890625 -34.054688 30.445312 -34.9375 29.5625 -35.46875 C 28.675781 -36.007812 27.75 -36.28125 26.78125 -36.28125 C 25.820312 -36.28125 24.613281 -35.953125 23.15625 -35.296875 C 21.695312 -34.648438 20.039062 -33.644531 18.1875 -32.28125 C 14.15625 -29.394531 9.796875 -25.21875 5.109375 -19.75 Z M 5.109375 -19.75"/></g></g></g><g fill-opacity="1" fill="#1b4a92"><g transform="translate(460.441539, 314.370107)"><g><path d="M 21.4375 -4.796875 C 19.09375 -3.296875 16.5625 -2.066406 13.84375 -1.109375 C 11.125 -0.148438 8.539062 0.328125 6.09375 0.328125 C 3.65625 0.328125 1.796875 0.078125 0.515625 -0.421875 C -0.753906 -0.921875 -1.796875 -1.613281 -2.609375 -2.5 C -6.085938 -6.269531 -6.066406 -11.832031 -2.546875 -19.1875 C -1.035156 -22.445312 1.253906 -25.414062 4.328125 -28.09375 C 7.398438 -30.769531 10.097656 -32.773438 12.421875 -34.109375 C 16.929688 -36.703125 21.164062 -38 25.125 -38 C 29.039062 -38 31.09375 -36.773438 31.28125 -34.328125 C 31.539062 -30.378906 26.734375 -26.070312 16.859375 -21.40625 C 13.234375 -19.707031 8.664062 -17.953125 3.15625 -16.140625 C 0.976562 -12.585938 -0.109375 -9.691406 -0.109375 -7.453125 C -0.109375 -5.222656 0.472656 -3.632812 1.640625 -2.6875 C 2.804688 -1.75 4.503906 -1.28125 6.734375 -1.28125 C 8.972656 -1.28125 11.394531 -1.757812 14 -2.71875 C 16.613281 -3.675781 19.054688 -4.894531 21.328125 -6.375 C 23.597656 -7.851562 25.65625 -9.460938 27.5 -11.203125 C 29.351562 -12.941406 30.992188 -14.601562 32.421875 -16.1875 C 33.847656 -17.78125 35.007812 -19.160156 35.90625 -20.328125 C 36.8125 -21.492188 37.429688 -22.222656 37.765625 -22.515625 L 38.9375 -21.578125 C 38.457031 -21.171875 37.726562 -20.335938 36.75 -19.078125 C 35.769531 -17.816406 34.53125 -16.382812 33.03125 -14.78125 C 31.53125 -13.175781 29.804688 -11.484375 27.859375 -9.703125 C 25.921875 -7.929688 23.78125 -6.296875 21.4375 -4.796875 Z M 4.4375 -18.078125 C 15.601562 -22.003906 22.796875 -25.90625 26.015625 -29.78125 C 27.085938 -31.070312 27.625 -32.332031 27.625 -33.5625 C 27.625 -35.625 26.660156 -36.65625 24.734375 -36.65625 C 21.335938 -36.65625 17.085938 -33.679688 11.984375 -27.734375 C 8.429688 -23.585938 5.914062 -20.367188 4.4375 -18.078125 Z M 4.4375 -18.078125"/></g></g></g><g fill-opacity="1" fill="#beae92"><g transform="translate(576.126442, 315.228111)"><g><path d="M 2.6875 -12.796875 C 2.238281 -15.410156 2.800781 -16.976562 4.375 -17.5 L 4.9375 -17.5 C 6.132812 -17.5 6.992188 -16.753906 7.515625 -15.265625 C 7.960938 -14.066406 8.519531 -12.941406 9.1875 -11.890625 C 9.863281 -10.847656 10.878906 -9.953125 12.234375 -9.203125 C 12.378906 -9.046875 12.601562 -8.96875 12.90625 -8.96875 C 13.207031 -8.96875 13.375 -9.0625 13.40625 -9.25 C 13.445312 -9.4375 13.351562 -9.609375 13.125 -9.765625 C 11.925781 -10.515625 10.914062 -11.523438 10.09375 -12.796875 C 9.269531 -14.066406 8.820312 -15.035156 8.75 -15.703125 C 8.675781 -16.609375 8.710938 -17.453125 8.859375 -18.234375 C 9.015625 -19.015625 9.460938 -19.519531 10.203125 -19.75 L 10.890625 -19.75 C 11.484375 -19.75 12.039062 -19.597656 12.5625 -19.296875 C 13.09375 -18.992188 13.503906 -18.472656 13.796875 -17.734375 C 14.242188 -16.304688 15.515625 -14.828125 17.609375 -13.296875 C 19.703125 -11.765625 22.023438 -11 24.578125 -11 C 27.785156 -11 30.457031 -11.820312 32.59375 -13.46875 C 34.726562 -15.113281 36.019531 -17.171875 36.46875 -19.640625 C 36.769531 -21.359375 36.691406 -22.890625 36.234375 -24.234375 C 35.785156 -25.578125 34.832031 -27 33.375 -28.5 C 31.914062 -30 29.726562 -31.796875 26.8125 -33.890625 L 23.671875 -36.125 C 19.109375 -39.414062 15.875 -42.40625 13.96875 -45.09375 C 12.0625 -47.789062 11.484375 -51.195312 12.234375 -55.3125 C 12.679688 -58.007812 13.539062 -60.441406 14.8125 -62.609375 C 16.082031 -64.773438 17.648438 -66.679688 19.515625 -68.328125 C 23.109375 -71.316406 27.335938 -73.148438 32.203125 -73.828125 C 33.546875 -74.054688 34.96875 -74.171875 36.46875 -74.171875 C 39.382812 -74.171875 42.171875 -73.703125 44.828125 -72.765625 C 47.484375 -71.828125 49.742188 -70.535156 51.609375 -68.890625 C 53.484375 -67.242188 54.570312 -65.300781 54.875 -63.0625 C 54.945312 -62.757812 54.867188 -62.34375 54.640625 -61.8125 C 54.421875 -61.289062 54.125 -60.921875 53.75 -60.703125 C 53.445312 -60.554688 53.144531 -60.484375 52.84375 -60.484375 C 52.175781 -60.484375 51.503906 -60.96875 50.828125 -61.9375 C 50.304688 -62.976562 49.78125 -63.757812 49.25 -64.28125 C 48.726562 -64.8125 48.054688 -65.414062 47.234375 -66.09375 C 47.160156 -66.164062 47.050781 -66.203125 46.90625 -66.203125 C 46.675781 -66.203125 46.484375 -66.125 46.328125 -65.96875 C 46.179688 -65.820312 46.1875 -65.675781 46.34375 -65.53125 C 47.539062 -64.476562 48.398438 -63.554688 48.921875 -62.765625 C 49.441406 -61.984375 49.664062 -61.179688 49.59375 -60.359375 C 49.59375 -60.066406 49.515625 -59.691406 49.359375 -59.234375 C 49.210938 -58.785156 48.953125 -58.414062 48.578125 -58.125 C 48.203125 -57.75 47.789062 -57.5625 47.34375 -57.5625 C 46.820312 -57.5625 46.257812 -57.800781 45.65625 -58.28125 C 45.0625 -58.769531 44.316406 -59.390625 43.421875 -60.140625 C 42.296875 -61.191406 40.910156 -61.898438 39.265625 -62.265625 C 37.617188 -62.640625 36.195312 -62.828125 35 -62.828125 C 32.457031 -62.828125 30.4375 -62.097656 28.9375 -60.640625 C 27.445312 -59.179688 26.515625 -57.484375 26.140625 -55.546875 C 25.765625 -53.523438 26.25 -51.726562 27.59375 -50.15625 C 28.945312 -48.582031 31.234375 -46.710938 34.453125 -44.546875 L 37.8125 -42.1875 C 40.800781 -40.019531 43.285156 -37.925781 45.265625 -35.90625 C 47.253906 -33.882812 48.660156 -31.675781 49.484375 -29.28125 C 50.304688 -26.882812 50.414062 -24.003906 49.8125 -20.640625 C 48.695312 -14.285156 45.894531 -9.144531 41.40625 -5.21875 C 36.914062 -1.289062 31.003906 0.671875 23.671875 0.671875 C 17.390625 0.671875 12.488281 -0.578125 8.96875 -3.078125 C 5.457031 -5.585938 3.363281 -8.828125 2.6875 -12.796875 Z M 43.3125 -18.96875 C 45.851562 -27.269531 42.972656 -33.175781 34.671875 -36.6875 C 37.585938 -34.289062 39.789062 -31.800781 41.28125 -29.21875 C 42.78125 -26.644531 43.457031 -23.226562 43.3125 -18.96875 Z M 43.3125 -18.96875"/></g></g></g><g fill-opacity="1" fill="#beae92"><g transform="translate(629.649084, 315.228111)"><g><path d="M 23.21875 -71.46875 C 25.394531 -71.46875 27.082031 -70.847656 28.28125 -69.609375 C 29.476562 -68.378906 29.890625 -66.679688 29.515625 -64.515625 C 29.210938 -62.722656 28.273438 -61.320312 26.703125 -60.3125 C 25.128906 -59.300781 23.109375 -58.832031 20.640625 -58.90625 C 18.703125 -58.976562 17.113281 -59.628906 15.875 -60.859375 C 14.644531 -62.097656 14.175781 -63.539062 14.46875 -65.1875 C 14.769531 -66.988281 15.816406 -68.46875 17.609375 -69.625 C 19.410156 -70.78125 21.28125 -71.394531 23.21875 -71.46875 Z M 4.484375 -3.359375 L 13.234375 -50.609375 C 13.316406 -51.429688 13.597656 -52.101562 14.078125 -52.625 C 14.566406 -53.144531 15.296875 -53.40625 16.265625 -53.40625 L 16.5 -53.40625 C 17.988281 -53.40625 18.625 -52.394531 18.40625 -50.375 L 18.296875 -49.140625 C 18.066406 -48.390625 18.210938 -48.015625 18.734375 -48.015625 C 19.335938 -48.015625 19.75 -48.503906 19.96875 -49.484375 L 20.3125 -50.484375 C 20.6875 -51.765625 21.148438 -52.679688 21.703125 -53.234375 C 22.265625 -53.796875 23.070312 -54.113281 24.125 -54.1875 C 25.769531 -54.1875 26.476562 -53.21875 26.25 -51.28125 L 17.953125 -3.140625 C 17.878906 -2.171875 17.597656 -1.382812 17.109375 -0.78125 C 16.617188 -0.1875 15.890625 0.144531 14.921875 0.21875 C 13.878906 0.21875 13.171875 -0.0195312 12.796875 -0.5 C 12.421875 -0.988281 12.234375 -1.679688 12.234375 -2.578125 L 12.125 -3.703125 C 12.125 -4.296875 11.9375 -4.59375 11.5625 -4.59375 C 11.113281 -4.59375 10.773438 -4.257812 10.546875 -3.59375 L 10.546875 -3.03125 C 10.097656 -0.9375 8.9375 0.144531 7.0625 0.21875 C 6.09375 0.21875 5.363281 -0.0390625 4.875 -0.5625 C 4.394531 -1.082031 4.265625 -2.015625 4.484375 -3.359375 Z M 4.484375 -3.359375"/></g></g></g><g fill-opacity="1" fill="#beae92"><g transform="translate(656.466501, 315.228111)"><g><path d="M 51.171875 -47.34375 C 54.003906 -51.3125 58.453125 -53.296875 64.515625 -53.296875 C 70.503906 -53.296875 74.675781 -51.796875 77.03125 -48.796875 C 79.382812 -45.804688 79.960938 -40.875 78.765625 -34 C 77.941406 -29.0625 77.023438 -24.085938 76.015625 -19.078125 C 75.003906 -14.066406 74.050781 -9.054688 73.15625 -4.046875 C 73.082031 -3.742188 73.023438 -3.460938 72.984375 -3.203125 C 72.953125 -2.941406 72.859375 -2.660156 72.703125 -2.359375 C 72.554688 -1.753906 72.3125 -1.171875 71.96875 -0.609375 C 71.632812 -0.0546875 71.019531 0.21875 70.125 0.21875 C 68.257812 0.0703125 67.4375 -0.820312 67.65625 -2.46875 C 67.726562 -3.144531 67.800781 -3.613281 67.875 -3.875 C 67.957031 -4.132812 68.035156 -4.601562 68.109375 -5.28125 C 68.328125 -6.46875 68.066406 -7.0625 67.328125 -7.0625 C 66.578125 -7.0625 66.085938 -6.46875 65.859375 -5.28125 C 65.785156 -4.976562 65.726562 -4.75 65.6875 -4.59375 C 65.65625 -4.445312 65.523438 -3.960938 65.296875 -3.140625 C 65.148438 -2.316406 64.832031 -1.550781 64.34375 -0.84375 C 63.863281 -0.132812 63.097656 0.21875 62.046875 0.21875 C 60.921875 0.144531 60.242188 -0.1875 60.015625 -0.78125 C 59.796875 -1.382812 59.765625 -2.0625 59.921875 -2.8125 C 61.035156 -8.34375 62.039062 -13.445312 62.9375 -18.125 C 63.84375 -22.800781 64.78125 -27.867188 65.75 -33.328125 C 66.351562 -36.617188 66.128906 -38.972656 65.078125 -40.390625 C 64.023438 -41.816406 62.265625 -42.566406 59.796875 -42.640625 C 57.253906 -42.640625 55.160156 -42.113281 53.515625 -41.0625 C 52.617188 -40.539062 52.097656 -39.90625 51.953125 -39.15625 C 51.953125 -38.40625 51.910156 -37.617188 51.828125 -36.796875 C 51.753906 -35.972656 51.644531 -35.113281 51.5 -34.21875 C 50.601562 -29.207031 49.648438 -24.210938 48.640625 -19.234375 C 47.628906 -14.265625 46.710938 -9.273438 45.890625 -4.265625 C 45.816406 -3.960938 45.738281 -3.679688 45.65625 -3.421875 C 45.582031 -3.160156 45.507812 -2.878906 45.4375 -2.578125 C 45.289062 -1.984375 45.03125 -1.40625 44.65625 -0.84375 C 44.28125 -0.28125 43.679688 0 42.859375 0 L 42.640625 0 C 40.921875 -0.144531 40.097656 -1.039062 40.171875 -2.6875 C 40.242188 -3.289062 40.316406 -3.738281 40.390625 -4.03125 C 40.460938 -4.332031 40.539062 -4.820312 40.625 -5.5 C 40.84375 -6.769531 40.613281 -7.40625 39.9375 -7.40625 C 39.195312 -7.40625 38.710938 -6.769531 38.484375 -5.5 L 38.03125 -3.25 C 37.738281 -2.5 37.347656 -1.75 36.859375 -1 C 36.367188 -0.257812 35.640625 0.109375 34.671875 0.109375 C 33.617188 0.0351562 32.960938 -0.296875 32.703125 -0.890625 C 32.441406 -1.492188 32.382812 -2.207031 32.53125 -3.03125 C 33.65625 -8.5625 34.664062 -13.644531 35.5625 -18.28125 C 36.46875 -22.925781 37.40625 -27.976562 38.375 -33.4375 C 38.96875 -36.726562 38.722656 -39.117188 37.640625 -40.609375 C 36.554688 -42.109375 34.816406 -42.859375 32.421875 -42.859375 C 30.035156 -42.859375 28.128906 -42.484375 26.703125 -41.734375 C 25.804688 -41.359375 25.242188 -40.648438 25.015625 -39.609375 L 18.734375 -4.484375 L 18.40625 -2.921875 C 18.25 -2.242188 17.925781 -1.625 17.4375 -1.0625 C 16.957031 -0.5 16.269531 -0.21875 15.375 -0.21875 C 13.5 -0.375 12.675781 -1.273438 12.90625 -2.921875 C 12.976562 -3.585938 13.03125 -4.015625 13.0625 -4.203125 C 13.101562 -4.390625 13.160156 -4.785156 13.234375 -5.390625 C 13.390625 -6.429688 13.203125 -6.953125 12.671875 -6.953125 C 12.078125 -6.953125 11.59375 -6.394531 11.21875 -5.28125 L 10.546875 -2.578125 C 10.242188 -1.609375 9.847656 -0.878906 9.359375 -0.390625 C 8.878906 0.0976562 8.113281 0.34375 7.0625 0.34375 C 6.019531 0.34375 5.40625 0.0234375 5.21875 -0.609375 C 5.03125 -1.253906 4.972656 -1.988281 5.046875 -2.8125 C 6.617188 -10.664062 8.054688 -18.125 9.359375 -25.1875 C 10.671875 -32.257812 11.960938 -39.832031 13.234375 -47.90625 C 13.390625 -48.582031 13.539062 -49.296875 13.6875 -50.046875 C 13.832031 -50.796875 14.46875 -51.171875 15.59375 -51.171875 C 16.414062 -51.171875 16.992188 -50.703125 17.328125 -49.765625 C 17.671875 -48.828125 17.894531 -47.738281 18 -46.5 C 18.113281 -45.269531 18.226562 -44.1875 18.34375 -43.25 C 18.457031 -42.320312 18.738281 -41.859375 19.1875 -41.859375 C 19.707031 -41.859375 20.226562 -42.453125 20.75 -43.640625 C 21.28125 -44.835938 22.101562 -46.203125 23.21875 -47.734375 C 24.34375 -49.273438 26.007812 -50.625 28.21875 -51.78125 C 30.425781 -52.9375 33.4375 -53.515625 37.25 -53.515625 C 40.394531 -53.515625 43.050781 -53.03125 45.21875 -52.0625 C 47.382812 -51.09375 48.957031 -49.519531 49.9375 -47.34375 C 50.082031 -47.050781 50.226562 -46.90625 50.375 -46.90625 C 50.601562 -46.90625 50.867188 -47.050781 51.171875 -47.34375 Z M 45 -36.578125 C 46.113281 -39.941406 45.71875 -42.726562 43.8125 -44.9375 C 41.90625 -47.144531 39.195312 -48.25 35.6875 -48.25 C 38.75 -47.195312 41.007812 -45.773438 42.46875 -43.984375 C 43.925781 -42.191406 44.769531 -39.722656 45 -36.578125 Z M 72.703125 -36.578125 C 73.828125 -39.867188 73.4375 -42.617188 71.53125 -44.828125 C 69.625 -47.035156 66.910156 -48.140625 63.390625 -48.140625 C 66.460938 -47.085938 68.707031 -45.660156 70.125 -43.859375 C 71.550781 -42.066406 72.410156 -39.640625 72.703125 -36.578125 Z M 72.703125 -36.578125"/></g></g></g><g fill-opacity="1" fill="#beae92"><g transform="translate(737.928639, 315.228111)"><g><path d="M 45 -58.90625 C 44.09375 -58.601562 43.25 -58.378906 42.46875 -58.234375 C 41.6875 -58.085938 40.921875 -58.015625 40.171875 -58.015625 C 39.191406 -58.015625 38.234375 -58.144531 37.296875 -58.40625 C 36.367188 -58.664062 35.457031 -58.984375 34.5625 -59.359375 C 33.8125 -59.578125 32.953125 -59.6875 31.984375 -59.6875 C 30.179688 -59.6875 28.722656 -59.460938 27.609375 -59.015625 C 27.304688 -58.941406 26.984375 -58.847656 26.640625 -58.734375 C 26.304688 -58.617188 25.953125 -58.488281 25.578125 -58.34375 C 25.429688 -58.34375 25.28125 -58.320312 25.125 -58.28125 C 24.976562 -58.25 24.832031 -58.234375 24.6875 -58.234375 C 24.238281 -58.234375 23.828125 -58.378906 23.453125 -58.671875 C 23.078125 -58.972656 22.851562 -59.425781 22.78125 -60.03125 C 22.550781 -61.445312 23.785156 -62.71875 26.484375 -63.84375 L 26.59375 -63.84375 C 26.8125 -63.988281 26.921875 -64.132812 26.921875 -64.28125 C 26.921875 -64.4375 26.773438 -64.515625 26.484375 -64.515625 L 26.25 -64.515625 C 25.957031 -64.367188 25.640625 -64.253906 25.296875 -64.171875 C 24.960938 -64.097656 24.679688 -64.023438 24.453125 -63.953125 C 24.304688 -63.953125 24.15625 -63.929688 24 -63.890625 C 23.851562 -63.859375 23.707031 -63.84375 23.5625 -63.84375 C 22.96875 -63.84375 22.554688 -64.03125 22.328125 -64.40625 C 22.179688 -64.925781 22.367188 -65.5625 22.890625 -66.3125 C 23.410156 -66.988281 24.046875 -67.472656 24.796875 -67.765625 C 26.210938 -68.515625 27.519531 -69.039062 28.71875 -69.34375 C 29.914062 -69.644531 31.078125 -69.796875 32.203125 -69.796875 C 33.023438 -69.796875 33.828125 -69.71875 34.609375 -69.5625 C 35.398438 -69.414062 36.171875 -69.226562 36.921875 -69 C 38.859375 -68.332031 40.390625 -68 41.515625 -68 C 41.890625 -68 42.242188 -68.015625 42.578125 -68.046875 C 42.921875 -68.085938 43.238281 -68.144531 43.53125 -68.21875 L 45.671875 -68.5625 C 45.742188 -68.5625 45.816406 -68.578125 45.890625 -68.609375 C 45.960938 -68.648438 46.035156 -68.671875 46.109375 -68.671875 C 46.640625 -68.671875 47.109375 -68.5 47.515625 -68.15625 C 47.929688 -67.820312 48.140625 -67.28125 48.140625 -66.53125 C 47.984375 -64.96875 46.5625 -63.882812 43.875 -63.28125 C 43.570312 -63.207031 43.4375 -63.054688 43.46875 -62.828125 C 43.507812 -62.609375 43.644531 -62.5 43.875 -62.5 L 43.984375 -62.5 C 44.429688 -62.644531 44.800781 -62.71875 45.09375 -62.71875 C 45.394531 -62.71875 45.660156 -62.753906 45.890625 -62.828125 C 46.035156 -62.910156 46.222656 -62.953125 46.453125 -62.953125 C 47.203125 -62.953125 47.648438 -62.6875 47.796875 -62.15625 C 48.023438 -61.707031 47.800781 -61.070312 47.125 -60.25 C 46.820312 -59.945312 46.503906 -59.679688 46.171875 -59.453125 C 45.835938 -59.234375 45.445312 -59.050781 45 -58.90625 Z M 30.515625 -1.90625 C 29.097656 -1.15625 27.640625 -0.613281 26.140625 -0.28125 C 24.648438 0.0507812 22.929688 0.21875 20.984375 0.21875 C 15.742188 0.21875 11.738281 -1.066406 8.96875 -3.640625 C 6.207031 -6.222656 5.3125 -10.242188 6.28125 -15.703125 C 7.101562 -20.191406 9.550781 -23.820312 13.625 -26.59375 C 17.707031 -29.363281 22.851562 -30.75 29.0625 -30.75 C 30.101562 -30.75 31.375 -30.691406 32.875 -30.578125 C 34.375 -30.460938 35.609375 -30.332031 36.578125 -30.1875 L 36.921875 -30.1875 C 37.367188 -30.113281 37.628906 -30.375 37.703125 -30.96875 C 38.523438 -35.382812 38.410156 -38.414062 37.359375 -40.0625 C 36.316406 -41.707031 34.375 -42.566406 31.53125 -42.640625 C 29.738281 -42.640625 27.867188 -42.320312 25.921875 -41.6875 C 23.972656 -41.050781 21.988281 -40.132812 19.96875 -38.9375 C 19.664062 -38.78125 19.363281 -38.628906 19.0625 -38.484375 C 18.769531 -38.335938 18.472656 -38.265625 18.171875 -38.265625 C 17.796875 -38.265625 17.425781 -38.375 17.0625 -38.59375 C 16.6875 -38.894531 16.550781 -39.363281 16.65625 -40 C 16.769531 -40.632812 16.976562 -41.140625 17.28125 -41.515625 C 17.726562 -42.191406 18.328125 -42.769531 19.078125 -43.25 C 19.828125 -43.738281 20.570312 -44.207031 21.3125 -44.65625 C 21.84375 -44.957031 22.085938 -45.238281 22.046875 -45.5 C 22.003906 -45.757812 21.800781 -45.890625 21.4375 -45.890625 C 21.207031 -45.890625 20.867188 -45.816406 20.421875 -45.671875 C 19.296875 -45.296875 18.320312 -44.882812 17.5 -44.4375 C 16.601562 -43.988281 15.707031 -43.765625 14.8125 -43.765625 C 13.988281 -43.765625 13.425781 -43.988281 13.125 -44.4375 C 12.75 -45.03125 12.75 -45.703125 13.125 -46.453125 C 13.5 -47.203125 14.132812 -47.835938 15.03125 -48.359375 C 18.476562 -50.378906 21.617188 -51.800781 24.453125 -52.625 C 27.296875 -53.445312 30.664062 -53.859375 34.5625 -53.859375 C 41.21875 -53.859375 45.910156 -52.0625 48.640625 -48.46875 C 51.367188 -44.882812 51.984375 -38.753906 50.484375 -30.078125 C 49.960938 -27.078125 49.195312 -22.882812 48.1875 -17.5 C 47.175781 -12.113281 45.703125 -4.707031 43.765625 4.71875 C 43.535156 6.582031 42.445312 7.515625 40.5 7.515625 C 38.9375 7.515625 38.226562 6.65625 38.375 4.9375 L 38.59375 2.921875 C 38.820312 1.941406 38.632812 1.453125 38.03125 1.453125 C 37.582031 1.453125 37.132812 2.085938 36.6875 3.359375 L 35.796875 6.171875 C 35.492188 6.921875 35.132812 7.59375 34.71875 8.1875 C 34.3125 8.789062 33.660156 9.09375 32.765625 9.09375 L 32.53125 9.09375 C 31.414062 9.007812 30.742188 8.671875 30.515625 8.078125 C 30.296875 7.484375 30.257812 6.773438 30.40625 5.953125 C 30.632812 4.972656 30.878906 3.8125 31.140625 2.46875 C 31.398438 1.125 31.640625 -0.109375 31.859375 -1.234375 C 32.015625 -1.828125 31.867188 -2.125 31.421875 -2.125 C 31.265625 -2.125 30.960938 -2.050781 30.515625 -1.90625 Z M 35.796875 -48.46875 C 38.859375 -47.425781 41.097656 -46.003906 42.515625 -44.203125 C 43.941406 -42.410156 44.769531 -39.984375 45 -36.921875 C 46.113281 -40.210938 45.734375 -42.957031 43.859375 -45.15625 C 41.992188 -47.363281 39.304688 -48.46875 35.796875 -48.46875 Z M 18.40625 -15.484375 C 17.726562 -11.742188 20.234375 -9.800781 25.921875 -9.65625 C 28.984375 -9.65625 31.265625 -10.023438 32.765625 -10.765625 C 33.585938 -11.140625 34.035156 -11.59375 34.109375 -12.125 L 35.6875 -19.859375 C 35.832031 -20.609375 35.53125 -20.984375 34.78125 -20.984375 C 33.582031 -21.128906 32.570312 -21.257812 31.75 -21.375 C 30.925781 -21.488281 29.878906 -21.546875 28.609375 -21.546875 C 25.390625 -21.546875 22.976562 -21.019531 21.375 -19.96875 C 19.769531 -18.925781 18.78125 -17.429688 18.40625 -15.484375 Z M 18.40625 -15.484375"/></g></g></g><g fill-opacity="1" fill="#beae92"><g transform="translate(791.114663, 315.228111)"><g><path d="M 33.09375 -53.515625 C 37.363281 -53.515625 40.992188 -52.484375 43.984375 -50.421875 C 46.972656 -48.367188 49.066406 -45.226562 50.265625 -41 C 51.460938 -36.78125 51.460938 -31.414062 50.265625 -24.90625 C 49.296875 -19.070312 47.390625 -14.285156 44.546875 -10.546875 C 41.703125 -6.804688 38.484375 -4.019531 34.890625 -2.1875 C 31.304688 -0.351562 27.867188 0.5625 24.578125 0.5625 C 20.085938 0.5625 16.269531 -0.425781 13.125 -2.40625 C 9.988281 -4.394531 7.78125 -7.460938 6.5 -11.609375 C 5.226562 -15.765625 5.15625 -21.054688 6.28125 -27.484375 C 7.25 -32.867188 9.039062 -37.503906 11.65625 -41.390625 C 14.28125 -45.285156 17.441406 -48.28125 21.140625 -50.375 C 24.847656 -52.46875 28.832031 -53.515625 33.09375 -53.515625 Z M 44.546875 -32.09375 C 45.585938 -36.582031 45.0625 -40.335938 42.96875 -43.359375 C 40.875 -46.390625 37.660156 -47.90625 33.328125 -47.90625 C 35.046875 -47.382812 36.742188 -46.46875 38.421875 -45.15625 C 40.109375 -43.851562 41.53125 -42.113281 42.6875 -39.9375 C 43.851562 -37.769531 44.472656 -35.15625 44.546875 -32.09375 Z M 37.59375 -26.03125 C 38.488281 -31.113281 38.335938 -35.039062 37.140625 -37.8125 C 35.941406 -40.582031 33.921875 -41.96875 31.078125 -41.96875 C 28.535156 -41.96875 26.125 -40.597656 23.84375 -37.859375 C 21.5625 -35.128906 20.007812 -31.523438 19.1875 -27.046875 C 18.507812 -23.148438 18.453125 -20.003906 19.015625 -17.609375 C 19.578125 -15.222656 20.492188 -13.503906 21.765625 -12.453125 C 23.035156 -11.410156 24.421875 -10.890625 25.921875 -10.890625 C 28.390625 -10.890625 30.707031 -12.082031 32.875 -14.46875 C 35.039062 -16.863281 36.613281 -20.71875 37.59375 -26.03125 Z M 37.59375 -26.03125"/></g></g></g><g fill-opacity="1" fill="#beae92"><g transform="translate(510.431892, 312.002532)"><g><path d="M 22.578125 0.578125 C 20.085938 0.578125 17.648438 0.296875 15.265625 -0.265625 C 12.890625 -0.828125 10.753906 -1.691406 8.859375 -2.859375 C 6.972656 -4.035156 5.472656 -5.519531 4.359375 -7.3125 C 3.242188 -9.101562 2.6875 -11.207031 2.6875 -13.625 C 2.6875 -15.539062 3.085938 -17.285156 3.890625 -18.859375 C 4.691406 -20.441406 5.734375 -21.828125 7.015625 -23.015625 C 8.304688 -24.203125 9.710938 -25.128906 11.234375 -25.796875 C 10.023438 -26.578125 9.019531 -27.5625 8.21875 -28.75 C 7.414062 -29.9375 7.015625 -31.3125 7.015625 -32.875 C 7.015625 -34.707031 7.53125 -36.273438 8.5625 -37.578125 C 9.601562 -38.890625 10.953125 -39.894531 12.609375 -40.59375 C 14.265625 -41.300781 15.988281 -41.65625 17.78125 -41.65625 C 19.851562 -41.65625 21.796875 -41.332031 23.609375 -40.6875 C 25.421875 -40.039062 26.929688 -39 28.140625 -37.5625 C 28.609375 -37.050781 28.78125 -36.507812 28.65625 -35.9375 C 28.539062 -35.375 28.226562 -34.96875 27.71875 -34.71875 C 27.21875 -34.46875 26.578125 -34.554688 25.796875 -34.984375 C 24.941406 -35.523438 24.125 -35.90625 23.34375 -36.125 C 22.5625 -36.34375 21.742188 -36.453125 20.890625 -36.453125 C 19.398438 -36.453125 18.21875 -36.050781 17.34375 -35.25 C 16.46875 -34.445312 16.03125 -33.398438 16.03125 -32.109375 C 16.03125 -31.210938 16.222656 -30.382812 16.609375 -29.625 C 17.003906 -28.863281 17.628906 -28.210938 18.484375 -27.671875 C 19.847656 -27.867188 21.078125 -27.835938 22.171875 -27.578125 C 23.265625 -27.328125 23.8125 -26.597656 23.8125 -25.390625 C 23.8125 -24.492188 23.421875 -23.847656 22.640625 -23.453125 C 21.859375 -23.066406 20.910156 -22.890625 19.796875 -22.921875 C 18.691406 -22.960938 17.671875 -23.125 16.734375 -23.40625 C 15.753906 -22.425781 15.039062 -21.253906 14.59375 -19.890625 C 14.144531 -18.523438 13.921875 -17.0625 13.921875 -15.5 C 13.921875 -12.226562 14.894531 -9.535156 16.84375 -7.421875 C 18.789062 -5.316406 21.539062 -4.265625 25.09375 -4.265625 C 28.09375 -4.265625 30.320312 -4.9375 31.78125 -6.28125 C 33.25 -7.632812 33.96875 -9.382812 33.9375 -11.53125 C 33.9375 -12.96875 33.476562 -14.078125 32.5625 -14.859375 C 31.644531 -15.640625 30.65625 -16.03125 29.59375 -16.03125 C 28.3125 -16.03125 27.257812 -15.628906 26.4375 -14.828125 C 25.625 -14.023438 25.21875 -13.0625 25.21875 -11.9375 C 25.21875 -11.664062 25.03125 -11.476562 24.65625 -11.375 C 24.289062 -11.28125 23.863281 -11.328125 23.375 -11.515625 C 22.882812 -11.710938 22.453125 -12.070312 22.078125 -12.59375 C 21.710938 -13.125 21.53125 -13.859375 21.53125 -14.796875 C 21.53125 -16.160156 21.976562 -17.367188 22.875 -18.421875 C 23.769531 -19.472656 25 -20.507812 26.5625 -21.53125 C 27.6875 -22.269531 28.953125 -23.007812 30.359375 -23.75 C 31.765625 -24.488281 33.304688 -25.328125 34.984375 -26.265625 C 36.347656 -27.046875 37.625 -27.84375 38.8125 -28.65625 C 40 -29.476562 40.960938 -30.304688 41.703125 -31.140625 C 42.453125 -31.984375 42.828125 -32.816406 42.828125 -33.640625 C 42.828125 -34.960938 42.066406 -35.625 40.546875 -35.625 C 40.347656 -35.625 40.050781 -35.601562 39.65625 -35.5625 C 39.269531 -35.53125 38.921875 -35.453125 38.609375 -35.328125 C 37.828125 -35.015625 37.300781 -35.015625 37.03125 -35.328125 C 36.757812 -35.640625 36.671875 -36.085938 36.765625 -36.671875 C 36.859375 -37.265625 37.0625 -37.773438 37.375 -38.203125 C 37.84375 -38.984375 38.632812 -39.691406 39.75 -40.328125 C 40.863281 -40.972656 42.351562 -41.316406 44.21875 -41.359375 C 45.195312 -41.398438 46.269531 -41.210938 47.4375 -40.796875 C 48.613281 -40.390625 49.628906 -39.726562 50.484375 -38.8125 C 51.335938 -37.894531 51.765625 -36.617188 51.765625 -34.984375 C 51.765625 -32.835938 51.09375 -30.914062 49.75 -29.21875 C 48.40625 -27.519531 46.59375 -26.066406 44.3125 -24.859375 C 42.03125 -23.648438 39.484375 -22.65625 36.671875 -21.875 C 37.453125 -21.5625 38.242188 -21.0625 39.046875 -20.375 C 39.847656 -19.695312 40.507812 -18.832031 41.03125 -17.78125 C 41.5625 -16.726562 41.828125 -15.421875 41.828125 -13.859375 C 41.828125 -11.328125 41.257812 -9.144531 40.125 -7.3125 C 39 -5.476562 37.488281 -3.972656 35.59375 -2.796875 C 33.707031 -1.628906 31.628906 -0.773438 29.359375 -0.234375 C 27.097656 0.304688 24.835938 0.578125 22.578125 0.578125 Z M 22.578125 0.578125"/></g></g></g></svg>